<svg xmlns="http://www.w3.org/2000/svg" xmlns:xlink="http://www.w3.org/1999/xlink" width="150" zoomAndPan="magnify" viewBox="0 0 112.5 37.5" height="50" preserveAspectRatio="xMidYMid meet" version="1.0"><defs><g/><clipPath id="7c1c82530f"><path d="M 0.492188 0 L 111.511719 0 L 111.511719 37.007812 L 0.492188 37.007812 Z M 0.492188 0 " clip-rule="nonzero"/></clipPath><clipPath id="d1464b8682"><path d="M 32.902344 14.761719 L 83.085938 14.761719 L 83.085938 15.820312 L 32.902344 15.820312 Z M 32.902344 14.761719 " clip-rule="nonzero"/></clipPath><clipPath id="a8677c08fe"><path d="M 33.429688 14.761719 L 82.550781 14.761719 C 82.84375 14.761719 83.082031 14.996094 83.082031 15.289062 C 83.082031 15.582031 82.84375 15.820312 82.550781 15.820312 L 33.429688 15.820312 C 33.136719 15.820312 32.902344 15.582031 32.902344 15.289062 C 32.902344 14.996094 33.136719 14.761719 33.429688 14.761719 Z M 33.429688 14.761719 " clip-rule="nonzero"/></clipPath><clipPath id="8747ac8700"><path d="M 5.230469 1 L 37.054688 1 L 37.054688 36.890625 L 5.230469 36.890625 Z M 5.230469 1 " clip-rule="nonzero"/></clipPath><clipPath id="5e516b59cd"><path d="M 65.28125 4.121094 L 68.242188 4.121094 L 68.242188 7.082031 L 65.28125 7.082031 Z M 65.28125 4.121094 " clip-rule="nonzero"/></clipPath><clipPath id="c38e7cc2e8"><path d="M 61.433594 0 L 88 0 L 88 37.007812 L 61.433594 37.007812 Z M 61.433594 0 " clip-rule="nonzero"/></clipPath></defs><g clip-path="url(#7c1c82530f)"><path fill="#ffffff" d="M 0.492188 0 L 111.511719 0 L 111.511719 37.007812 L 0.492188 37.007812 Z M 0.492188 0 " fill-opacity="1" fill-rule="nonzero"/><path fill="#ffffff" d="M 0.492188 0 L 111.511719 0 L 111.511719 37.007812 L 0.492188 37.007812 Z M 0.492188 0 " fill-opacity="1" fill-rule="nonzero"/></g><g clip-path="url(#d1464b8682)"><g clip-path="url(#a8677c08fe)"><path fill="#008080" d="M 32.902344 14.761719 L 83.082031 14.761719 L 83.082031 15.820312 L 32.902344 15.820312 Z M 32.902344 14.761719 " fill-opacity="1" fill-rule="nonzero"/></g></g><g fill="#008080" fill-opacity="1"><g transform="translate(37.649871, 13.344683)"><g><path d="M 3.640625 -5.859375 C 4.066406 -5.859375 4.46875 -5.789062 4.84375 -5.65625 C 5.21875 -5.53125 5.550781 -5.34375 5.84375 -5.09375 C 6.132812 -4.851562 6.359375 -4.550781 6.515625 -4.1875 C 6.679688 -3.832031 6.765625 -3.421875 6.765625 -2.953125 L 6.765625 -2.71875 C 6.765625 -2.539062 6.679688 -2.453125 6.515625 -2.453125 L 2.390625 -2.453125 C 2.410156 -2.066406 2.523438 -1.753906 2.734375 -1.515625 C 2.953125 -1.285156 3.238281 -1.171875 3.59375 -1.171875 C 3.875 -1.171875 4.109375 -1.226562 4.296875 -1.34375 C 4.484375 -1.457031 4.613281 -1.597656 4.6875 -1.765625 C 4.71875 -1.835938 4.753906 -1.890625 4.796875 -1.921875 C 4.847656 -1.960938 4.90625 -1.984375 4.96875 -1.984375 L 6.390625 -1.984375 C 6.484375 -1.984375 6.550781 -1.957031 6.59375 -1.90625 C 6.632812 -1.851562 6.640625 -1.78125 6.609375 -1.6875 C 6.460938 -1.257812 6.242188 -0.90625 5.953125 -0.625 C 5.660156 -0.351562 5.316406 -0.144531 4.921875 0 C 4.535156 0.132812 4.109375 0.203125 3.640625 0.203125 C 3.148438 0.203125 2.703125 0.132812 2.296875 0 C 1.898438 -0.144531 1.554688 -0.347656 1.265625 -0.609375 C 0.972656 -0.867188 0.742188 -1.1875 0.578125 -1.5625 C 0.421875 -1.9375 0.34375 -2.351562 0.34375 -2.8125 C 0.34375 -3.28125 0.425781 -3.695312 0.59375 -4.0625 C 0.757812 -4.4375 0.988281 -4.753906 1.28125 -5.015625 C 1.570312 -5.285156 1.914062 -5.492188 2.3125 -5.640625 C 2.71875 -5.785156 3.160156 -5.859375 3.640625 -5.859375 Z M 2.40625 -3.5 L 4.734375 -3.5 C 4.710938 -3.800781 4.597656 -4.050781 4.390625 -4.25 C 4.191406 -4.445312 3.921875 -4.546875 3.578125 -4.546875 C 3.222656 -4.546875 2.953125 -4.445312 2.765625 -4.25 C 2.578125 -4.050781 2.457031 -3.800781 2.40625 -3.5 Z M 2.40625 -3.5 "/></g></g></g><g fill="#008080" fill-opacity="1"><g transform="translate(44.787699, 13.344683)"><g><path d="M 5.125 -5.109375 L 5.125 -9.609375 C 5.75 -9.484375 6.222656 -9.210938 6.546875 -8.796875 C 6.878906 -8.378906 7.046875 -7.835938 7.046875 -7.171875 L 7.046875 0.125 C 6.265625 0.125 5.71875 -0.203125 5.40625 -0.859375 C 5.15625 -0.523438 4.835938 -0.265625 4.453125 -0.078125 C 4.078125 0.109375 3.65625 0.203125 3.1875 0.203125 C 2.769531 0.203125 2.390625 0.128906 2.046875 -0.015625 C 1.703125 -0.160156 1.40625 -0.367188 1.15625 -0.640625 C 0.90625 -0.910156 0.710938 -1.226562 0.578125 -1.59375 C 0.441406 -1.96875 0.375 -2.378906 0.375 -2.828125 C 0.375 -3.273438 0.441406 -3.679688 0.578125 -4.046875 C 0.710938 -4.421875 0.90625 -4.738281 1.15625 -5 C 1.40625 -5.269531 1.703125 -5.476562 2.046875 -5.625 C 2.390625 -5.78125 2.769531 -5.859375 3.1875 -5.859375 C 3.582031 -5.859375 3.941406 -5.789062 4.265625 -5.65625 C 4.597656 -5.53125 4.882812 -5.347656 5.125 -5.109375 Z M 3.78125 -1.328125 C 4.039062 -1.328125 4.269531 -1.390625 4.46875 -1.515625 C 4.675781 -1.640625 4.835938 -1.816406 4.953125 -2.046875 C 5.066406 -2.273438 5.125 -2.53125 5.125 -2.8125 C 5.125 -3.101562 5.066406 -3.359375 4.953125 -3.578125 C 4.835938 -3.804688 4.675781 -3.984375 4.46875 -4.109375 C 4.269531 -4.242188 4.039062 -4.3125 3.78125 -4.3125 C 3.519531 -4.3125 3.285156 -4.242188 3.078125 -4.109375 C 2.878906 -3.984375 2.722656 -3.804688 2.609375 -3.578125 C 2.492188 -3.359375 2.4375 -3.101562 2.4375 -2.8125 C 2.4375 -2.53125 2.492188 -2.273438 2.609375 -2.046875 C 2.722656 -1.816406 2.878906 -1.640625 3.078125 -1.515625 C 3.285156 -1.390625 3.519531 -1.328125 3.78125 -1.328125 Z M 3.78125 -1.328125 "/></g></g></g><g fill="#008080" fill-opacity="1"><g transform="translate(52.463747, 13.344683)"><g><path d="M 1.484375 -6.765625 C 1.253906 -6.765625 1.03125 -6.800781 0.8125 -6.875 C 0.59375 -6.957031 0.414062 -7.070312 0.28125 -7.21875 C 0.144531 -7.375 0.078125 -7.566406 0.078125 -7.796875 C 0.078125 -8.023438 0.144531 -8.21875 0.28125 -8.375 C 0.414062 -8.53125 0.59375 -8.644531 0.8125 -8.71875 C 1.03125 -8.800781 1.253906 -8.84375 1.484375 -8.84375 C 1.710938 -8.84375 1.9375 -8.800781 2.15625 -8.71875 C 2.375 -8.644531 2.550781 -8.53125 2.6875 -8.375 C 2.820312 -8.21875 2.890625 -8.023438 2.890625 -7.796875 C 2.890625 -7.566406 2.820312 -7.375 2.6875 -7.21875 C 2.550781 -7.070312 2.375 -6.957031 2.15625 -6.875 C 1.9375 -6.800781 1.710938 -6.765625 1.484375 -6.765625 Z M 2.28125 0 L 0.875 0 C 0.695312 0 0.609375 -0.0820312 0.609375 -0.25 L 0.609375 -5.78125 C 1.234375 -5.65625 1.707031 -5.382812 2.03125 -4.96875 C 2.363281 -4.550781 2.53125 -4.007812 2.53125 -3.34375 L 2.53125 -0.25 C 2.53125 -0.0820312 2.445312 0 2.28125 0 Z M 2.28125 0 "/></g></g></g><g fill="#7acb53" fill-opacity="1"><g transform="translate(55.541321, 13.344683)"><g><path d="M 3.875 -2.015625 L 0.546875 -2.015625 C 0.378906 -2.015625 0.296875 -2.097656 0.296875 -2.265625 L 0.296875 -3.40625 C 0.296875 -3.582031 0.378906 -3.671875 0.546875 -3.671875 L 3.875 -3.671875 C 4.050781 -3.671875 4.140625 -3.582031 4.140625 -3.40625 L 4.140625 -2.265625 C 4.140625 -2.097656 4.050781 -2.015625 3.875 -2.015625 Z M 3.875 -2.015625 "/></g></g></g><g fill="#7acb53" fill-opacity="1"><g transform="translate(59.975232, 13.344683)"><g><path d="M 1 -1.75 L 5.359375 -1.75 C 5.523438 -1.75 5.609375 -1.660156 5.609375 -1.484375 L 5.609375 -0.25 C 5.609375 -0.0820312 5.523438 0 5.359375 0 L 0.953125 0 C 0.773438 0 0.6875 -0.0820312 0.6875 -0.25 L 0.6875 -8.453125 C 0.6875 -8.628906 0.773438 -8.71875 0.953125 -8.71875 L 2.359375 -8.71875 C 2.523438 -8.71875 2.609375 -8.628906 2.609375 -8.453125 L 2.609375 -4.671875 C 2.609375 -4.148438 2.539062 -3.695312 2.40625 -3.3125 C 2.269531 -2.925781 2.082031 -2.601562 1.84375 -2.34375 C 1.601562 -2.09375 1.320312 -1.894531 1 -1.75 Z M 1 -1.75 "/></g></g></g><g fill="#7acb53" fill-opacity="1"><g transform="translate(65.652175, 13.344683)"><g><path d="M 1.484375 -6.765625 C 1.253906 -6.765625 1.03125 -6.800781 0.8125 -6.875 C 0.59375 -6.957031 0.414062 -7.070312 0.28125 -7.21875 C 0.144531 -7.375 0.078125 -7.566406 0.078125 -7.796875 C 0.078125 -8.023438 0.144531 -8.21875 0.28125 -8.375 C 0.414062 -8.53125 0.59375 -8.644531 0.8125 -8.71875 C 1.03125 -8.800781 1.253906 -8.84375 1.484375 -8.84375 C 1.710938 -8.84375 1.9375 -8.800781 2.15625 -8.71875 C 2.375 -8.644531 2.550781 -8.53125 2.6875 -8.375 C 2.820312 -8.21875 2.890625 -8.023438 2.890625 -7.796875 C 2.890625 -7.566406 2.820312 -7.375 2.6875 -7.21875 C 2.550781 -7.070312 2.375 -6.957031 2.15625 -6.875 C 1.9375 -6.800781 1.710938 -6.765625 1.484375 -6.765625 Z M 2.28125 0 L 0.875 0 C 0.695312 0 0.609375 -0.0820312 0.609375 -0.25 L 0.609375 -5.78125 C 1.234375 -5.65625 1.707031 -5.382812 2.03125 -4.96875 C 2.363281 -4.550781 2.53125 -4.007812 2.53125 -3.34375 L 2.53125 -0.25 C 2.53125 -0.0820312 2.445312 0 2.28125 0 Z M 2.28125 0 "/></g></g></g><g fill="#7acb53" fill-opacity="1"><g transform="translate(68.72772, 13.344683)"><g><path d="M 4.25 -5.859375 C 4.757812 -5.859375 5.164062 -5.75 5.46875 -5.53125 C 5.78125 -5.3125 6.007812 -5.007812 6.15625 -4.625 C 6.300781 -4.238281 6.375 -3.789062 6.375 -3.28125 L 6.375 -0.25 C 6.375 -0.0820312 6.289062 0 6.125 0 L 4.71875 0 C 4.539062 0 4.453125 -0.0820312 4.453125 -0.25 L 4.453125 -3.28125 C 4.453125 -3.613281 4.382812 -3.867188 4.25 -4.046875 C 4.125 -4.222656 3.90625 -4.3125 3.59375 -4.3125 C 3.320312 -4.3125 3.085938 -4.210938 2.890625 -4.015625 C 2.691406 -3.816406 2.570312 -3.539062 2.53125 -3.1875 L 2.53125 -0.25 C 2.53125 -0.0820312 2.445312 0 2.28125 0 L 0.875 0 C 0.695312 0 0.609375 -0.0820312 0.609375 -0.25 L 0.609375 -5.78125 C 0.992188 -5.695312 1.320312 -5.5625 1.59375 -5.375 C 1.863281 -5.1875 2.078125 -4.953125 2.234375 -4.671875 C 2.523438 -5.097656 2.84375 -5.398438 3.1875 -5.578125 C 3.53125 -5.765625 3.882812 -5.859375 4.25 -5.859375 Z M 4.25 -5.859375 "/></g></g></g><g fill="#7acb53" fill-opacity="1"><g transform="translate(75.647697, 13.344683)"><g><path d="M 4.375 -2.953125 L 6.8125 -0.328125 C 6.894531 -0.242188 6.921875 -0.164062 6.890625 -0.09375 C 6.859375 -0.03125 6.785156 0 6.671875 0 L 4.71875 0 C 4.582031 0 4.476562 -0.0507812 4.40625 -0.15625 L 2.53125 -2.515625 L 2.53125 -0.25 C 2.53125 -0.0820312 2.445312 0 2.28125 0 L 0.875 0 C 0.695312 0 0.609375 -0.0820312 0.609375 -0.25 L 0.609375 -9.609375 C 1.234375 -9.484375 1.707031 -9.210938 2.03125 -8.796875 C 2.363281 -8.378906 2.53125 -7.835938 2.53125 -7.171875 L 2.53125 -3.375 L 4.34375 -5.515625 C 4.425781 -5.609375 4.53125 -5.65625 4.65625 -5.65625 L 6.546875 -5.65625 C 6.660156 -5.65625 6.726562 -5.617188 6.75 -5.546875 C 6.78125 -5.484375 6.753906 -5.410156 6.671875 -5.328125 Z M 4.375 -2.953125 "/></g></g></g><g fill="#7acb53" fill-opacity="1"><g transform="translate(29.429364, 19.680261)"><g><path d="M 1.203125 0.03125 C 1.046875 0.03125 0.898438 0.00390625 0.765625 -0.046875 C 0.628906 -0.109375 0.507812 -0.1875 0.40625 -0.28125 C 0.300781 -0.375 0.21875 -0.488281 0.15625 -0.625 C 0.101562 -0.769531 0.078125 -0.925781 0.078125 -1.09375 C 0.078125 -1.226562 0.0976562 -1.351562 0.140625 -1.46875 C 0.179688 -1.59375 0.234375 -1.695312 0.296875 -1.78125 C 0.367188 -1.875 0.453125 -1.953125 0.546875 -2.015625 C 0.640625 -2.078125 0.738281 -2.125 0.84375 -2.15625 C 0.957031 -2.195312 1.078125 -2.21875 1.203125 -2.21875 C 1.316406 -2.21875 1.425781 -2.203125 1.53125 -2.171875 C 1.644531 -2.140625 1.742188 -2.09375 1.828125 -2.03125 C 1.921875 -1.96875 2 -1.894531 2.0625 -1.8125 C 2.125 -1.726562 2.171875 -1.628906 2.203125 -1.515625 C 2.210938 -1.492188 2.207031 -1.476562 2.1875 -1.46875 C 2.175781 -1.457031 2.160156 -1.453125 2.140625 -1.453125 L 1.765625 -1.453125 C 1.734375 -1.453125 1.707031 -1.46875 1.6875 -1.5 C 1.664062 -1.5625 1.628906 -1.613281 1.578125 -1.65625 C 1.523438 -1.695312 1.46875 -1.726562 1.40625 -1.75 C 1.34375 -1.769531 1.273438 -1.78125 1.203125 -1.78125 C 1.109375 -1.78125 1.019531 -1.765625 0.9375 -1.734375 C 0.863281 -1.703125 0.796875 -1.65625 0.734375 -1.59375 C 0.679688 -1.539062 0.640625 -1.46875 0.609375 -1.375 C 0.578125 -1.289062 0.5625 -1.195312 0.5625 -1.09375 C 0.5625 -0.988281 0.578125 -0.890625 0.609375 -0.796875 C 0.640625 -0.710938 0.679688 -0.640625 0.734375 -0.578125 C 0.796875 -0.523438 0.863281 -0.484375 0.9375 -0.453125 C 1.019531 -0.421875 1.109375 -0.40625 1.203125 -0.40625 C 1.273438 -0.40625 1.34375 -0.414062 1.40625 -0.4375 C 1.476562 -0.457031 1.535156 -0.488281 1.578125 -0.53125 C 1.628906 -0.570312 1.664062 -0.625 1.6875 -0.6875 C 1.707031 -0.726562 1.734375 -0.75 1.765625 -0.75 L 2.15625 -0.75 C 2.175781 -0.75 2.191406 -0.738281 2.203125 -0.71875 C 2.210938 -0.707031 2.210938 -0.691406 2.203125 -0.671875 C 2.171875 -0.554688 2.125 -0.457031 2.0625 -0.375 C 2 -0.289062 1.921875 -0.21875 1.828125 -0.15625 C 1.742188 -0.09375 1.644531 -0.046875 1.53125 -0.015625 C 1.425781 0.015625 1.316406 0.03125 1.203125 0.03125 Z M 1.203125 0.03125 "/></g></g></g><g fill="#7acb53" fill-opacity="1"><g transform="translate(31.895189, 19.680261)"><g><path d="M 0.890625 0.046875 C 0.765625 0.046875 0.648438 0.03125 0.546875 0 C 0.453125 -0.0390625 0.367188 -0.09375 0.296875 -0.15625 C 0.234375 -0.226562 0.179688 -0.3125 0.140625 -0.40625 C 0.109375 -0.5 0.09375 -0.597656 0.09375 -0.703125 C 0.09375 -0.816406 0.109375 -0.914062 0.140625 -1 C 0.179688 -1.09375 0.234375 -1.175781 0.296875 -1.25 C 0.367188 -1.320312 0.453125 -1.375 0.546875 -1.40625 C 0.648438 -1.445312 0.765625 -1.46875 0.890625 -1.46875 C 1.015625 -1.46875 1.125 -1.445312 1.21875 -1.40625 C 1.320312 -1.375 1.410156 -1.320312 1.484375 -1.25 C 1.554688 -1.175781 1.609375 -1.09375 1.640625 -1 C 1.679688 -0.914062 1.703125 -0.816406 1.703125 -0.703125 C 1.703125 -0.554688 1.671875 -0.425781 1.609375 -0.3125 C 1.546875 -0.195312 1.453125 -0.109375 1.328125 -0.046875 C 1.203125 0.015625 1.054688 0.046875 0.890625 0.046875 Z M 0.890625 -0.328125 C 0.960938 -0.328125 1.019531 -0.34375 1.0625 -0.375 C 1.113281 -0.40625 1.148438 -0.445312 1.171875 -0.5 C 1.203125 -0.5625 1.21875 -0.628906 1.21875 -0.703125 C 1.21875 -0.773438 1.203125 -0.835938 1.171875 -0.890625 C 1.148438 -0.953125 1.113281 -1 1.0625 -1.03125 C 1.019531 -1.070312 0.960938 -1.09375 0.890625 -1.09375 C 0.828125 -1.09375 0.769531 -1.070312 0.71875 -1.03125 C 0.664062 -1 0.625 -0.953125 0.59375 -0.890625 C 0.570312 -0.835938 0.5625 -0.773438 0.5625 -0.703125 C 0.5625 -0.628906 0.570312 -0.5625 0.59375 -0.5 C 0.625 -0.445312 0.664062 -0.40625 0.71875 -0.375 C 0.769531 -0.34375 0.828125 -0.328125 0.890625 -0.328125 Z M 0.890625 -0.328125 "/></g></g></g><g fill="#7acb53" fill-opacity="1"><g transform="translate(33.871077, 19.680261)"><g><path d="M 1.0625 -1.46875 C 1.1875 -1.46875 1.285156 -1.4375 1.359375 -1.375 C 1.441406 -1.320312 1.5 -1.25 1.53125 -1.15625 C 1.570312 -1.0625 1.59375 -0.945312 1.59375 -0.8125 L 1.59375 -0.0625 C 1.59375 -0.0195312 1.570312 0 1.53125 0 L 1.171875 0 C 1.128906 0 1.109375 -0.0195312 1.109375 -0.0625 L 1.109375 -0.8125 C 1.109375 -0.894531 1.09375 -0.957031 1.0625 -1 C 1.03125 -1.050781 0.976562 -1.078125 0.90625 -1.078125 C 0.832031 -1.078125 0.769531 -1.050781 0.71875 -1 C 0.675781 -0.945312 0.648438 -0.878906 0.640625 -0.796875 L 0.640625 -0.0625 C 0.640625 -0.0195312 0.613281 0 0.5625 0 L 0.21875 0 C 0.175781 0 0.15625 -0.0195312 0.15625 -0.0625 L 0.15625 -1.4375 C 0.25 -1.425781 0.328125 -1.394531 0.390625 -1.34375 C 0.460938 -1.300781 0.519531 -1.242188 0.5625 -1.171875 C 0.632812 -1.273438 0.710938 -1.347656 0.796875 -1.390625 C 0.878906 -1.441406 0.96875 -1.46875 1.0625 -1.46875 Z M 1.0625 -1.46875 "/></g></g></g><g fill="#7acb53" fill-opacity="1"><g transform="translate(35.78292, 19.680261)"><g><path d="M 1.0625 -1.46875 C 1.1875 -1.46875 1.285156 -1.4375 1.359375 -1.375 C 1.441406 -1.320312 1.5 -1.25 1.53125 -1.15625 C 1.570312 -1.0625 1.59375 -0.945312 1.59375 -0.8125 L 1.59375 -0.0625 C 1.59375 -0.0195312 1.570312 0 1.53125 0 L 1.171875 0 C 1.128906 0 1.109375 -0.0195312 1.109375 -0.0625 L 1.109375 -0.8125 C 1.109375 -0.894531 1.09375 -0.957031 1.0625 -1 C 1.03125 -1.050781 0.976562 -1.078125 0.90625 -1.078125 C 0.832031 -1.078125 0.769531 -1.050781 0.71875 -1 C 0.675781 -0.945312 0.648438 -0.878906 0.640625 -0.796875 L 0.640625 -0.0625 C 0.640625 -0.0195312 0.613281 0 0.5625 0 L 0.21875 0 C 0.175781 0 0.15625 -0.0195312 0.15625 -0.0625 L 0.15625 -1.4375 C 0.25 -1.425781 0.328125 -1.394531 0.390625 -1.34375 C 0.460938 -1.300781 0.519531 -1.242188 0.5625 -1.171875 C 0.632812 -1.273438 0.710938 -1.347656 0.796875 -1.390625 C 0.878906 -1.441406 0.96875 -1.46875 1.0625 -1.46875 Z M 1.0625 -1.46875 "/></g></g></g><g fill="#7acb53" fill-opacity="1"><g transform="translate(37.694762, 19.680261)"><g><path d="M 0.90625 -1.46875 C 1.019531 -1.46875 1.125 -1.453125 1.21875 -1.421875 C 1.3125 -1.390625 1.390625 -1.34375 1.453125 -1.28125 C 1.523438 -1.21875 1.582031 -1.140625 1.625 -1.046875 C 1.664062 -0.953125 1.6875 -0.847656 1.6875 -0.734375 L 1.6875 -0.671875 C 1.6875 -0.628906 1.664062 -0.609375 1.625 -0.609375 L 0.59375 -0.609375 C 0.601562 -0.515625 0.632812 -0.4375 0.6875 -0.375 C 0.738281 -0.320312 0.8125 -0.296875 0.90625 -0.296875 C 0.96875 -0.296875 1.019531 -0.304688 1.0625 -0.328125 C 1.113281 -0.359375 1.148438 -0.394531 1.171875 -0.4375 C 1.179688 -0.457031 1.191406 -0.472656 1.203125 -0.484375 C 1.210938 -0.492188 1.226562 -0.5 1.25 -0.5 L 1.59375 -0.5 C 1.613281 -0.5 1.628906 -0.488281 1.640625 -0.46875 C 1.660156 -0.457031 1.664062 -0.441406 1.65625 -0.421875 C 1.613281 -0.316406 1.554688 -0.226562 1.484375 -0.15625 C 1.410156 -0.0820312 1.320312 -0.03125 1.21875 0 C 1.125 0.03125 1.019531 0.046875 0.90625 0.046875 C 0.789062 0.046875 0.679688 0.03125 0.578125 0 C 0.472656 -0.03125 0.382812 -0.078125 0.3125 -0.140625 C 0.238281 -0.210938 0.179688 -0.296875 0.140625 -0.390625 C 0.109375 -0.484375 0.09375 -0.585938 0.09375 -0.703125 C 0.09375 -0.816406 0.109375 -0.921875 0.140625 -1.015625 C 0.179688 -1.109375 0.238281 -1.1875 0.3125 -1.25 C 0.394531 -1.320312 0.484375 -1.375 0.578125 -1.40625 C 0.679688 -1.445312 0.789062 -1.46875 0.90625 -1.46875 Z M 0.609375 -0.875 L 1.1875 -0.875 C 1.175781 -0.945312 1.144531 -1.007812 1.09375 -1.0625 C 1.039062 -1.113281 0.972656 -1.140625 0.890625 -1.140625 C 0.804688 -1.140625 0.738281 -1.113281 0.6875 -1.0625 C 0.644531 -1.007812 0.617188 -0.945312 0.609375 -0.875 Z M 0.609375 -0.875 "/></g></g></g><g fill="#7acb53" fill-opacity="1"><g transform="translate(39.661042, 19.680261)"><g><path d="M 0.84375 0.046875 C 0.726562 0.046875 0.625 0.03125 0.53125 0 C 0.4375 -0.0390625 0.351562 -0.0976562 0.28125 -0.171875 C 0.21875 -0.242188 0.171875 -0.320312 0.140625 -0.40625 C 0.109375 -0.5 0.09375 -0.597656 0.09375 -0.703125 C 0.09375 -0.804688 0.109375 -0.90625 0.140625 -1 C 0.171875 -1.09375 0.21875 -1.171875 0.28125 -1.234375 C 0.351562 -1.304688 0.4375 -1.363281 0.53125 -1.40625 C 0.625 -1.445312 0.726562 -1.46875 0.84375 -1.46875 C 0.988281 -1.46875 1.113281 -1.441406 1.21875 -1.390625 C 1.320312 -1.335938 1.40625 -1.269531 1.46875 -1.1875 C 1.539062 -1.101562 1.585938 -1.007812 1.609375 -0.90625 C 1.609375 -0.882812 1.601562 -0.867188 1.59375 -0.859375 C 1.582031 -0.847656 1.566406 -0.84375 1.546875 -0.84375 L 1.1875 -0.84375 C 1.15625 -0.84375 1.132812 -0.863281 1.125 -0.90625 C 1.113281 -0.96875 1.085938 -1.015625 1.046875 -1.046875 C 1.003906 -1.078125 0.945312 -1.09375 0.875 -1.09375 C 0.820312 -1.09375 0.773438 -1.082031 0.734375 -1.0625 C 0.691406 -1.039062 0.660156 -1.007812 0.640625 -0.96875 C 0.617188 -0.9375 0.597656 -0.894531 0.578125 -0.84375 C 0.566406 -0.800781 0.5625 -0.753906 0.5625 -0.703125 C 0.5625 -0.640625 0.570312 -0.578125 0.59375 -0.515625 C 0.613281 -0.453125 0.644531 -0.398438 0.6875 -0.359375 C 0.738281 -0.328125 0.800781 -0.3125 0.875 -0.3125 C 0.945312 -0.3125 1.003906 -0.328125 1.046875 -0.359375 C 1.085938 -0.398438 1.113281 -0.453125 1.125 -0.515625 C 1.132812 -0.546875 1.15625 -0.5625 1.1875 -0.5625 L 1.546875 -0.5625 C 1.566406 -0.5625 1.582031 -0.554688 1.59375 -0.546875 C 1.601562 -0.546875 1.609375 -0.535156 1.609375 -0.515625 C 1.585938 -0.410156 1.546875 -0.3125 1.484375 -0.21875 C 1.421875 -0.132812 1.332031 -0.0664062 1.21875 -0.015625 C 1.113281 0.0234375 0.988281 0.046875 0.84375 0.046875 Z M 0.84375 0.046875 "/></g></g></g><g fill="#7acb53" fill-opacity="1"><g transform="translate(41.544063, 19.680261)"><g><path d="M 0.78125 -1.40625 L 1 -1.40625 C 1.039062 -1.40625 1.0625 -1.382812 1.0625 -1.34375 L 1.0625 -1.109375 C 1.0625 -1.066406 1.039062 -1.046875 1 -1.046875 L 0.78125 -1.046875 L 0.78125 -0.0625 C 0.78125 -0.0195312 0.757812 0 0.71875 0 L 0.375 0 C 0.332031 0 0.3125 -0.0195312 0.3125 -0.0625 L 0.3125 -1.046875 L 0.109375 -1.046875 C 0.0546875 -1.046875 0.03125 -1.066406 0.03125 -1.109375 L 0.03125 -1.34375 C 0.03125 -1.382812 0.0546875 -1.40625 0.109375 -1.40625 L 0.3125 -1.40625 C 0.3125 -1.570312 0.351562 -1.707031 0.4375 -1.8125 C 0.519531 -1.914062 0.632812 -1.984375 0.78125 -2.015625 Z M 0.78125 -1.40625 "/></g></g></g><g fill="#7acb53" fill-opacity="1"><g transform="translate(42.825067, 19.680261)"><g><path d="M 0.375 -1.6875 C 0.3125 -1.6875 0.253906 -1.695312 0.203125 -1.71875 C 0.148438 -1.738281 0.101562 -1.765625 0.0625 -1.796875 C 0.03125 -1.835938 0.015625 -1.890625 0.015625 -1.953125 C 0.015625 -2.003906 0.03125 -2.050781 0.0625 -2.09375 C 0.101562 -2.132812 0.148438 -2.160156 0.203125 -2.171875 C 0.253906 -2.191406 0.3125 -2.203125 0.375 -2.203125 C 0.425781 -2.203125 0.476562 -2.191406 0.53125 -2.171875 C 0.59375 -2.160156 0.640625 -2.132812 0.671875 -2.09375 C 0.703125 -2.050781 0.71875 -2.003906 0.71875 -1.953125 C 0.71875 -1.890625 0.703125 -1.835938 0.671875 -1.796875 C 0.640625 -1.765625 0.59375 -1.738281 0.53125 -1.71875 C 0.476562 -1.695312 0.425781 -1.6875 0.375 -1.6875 Z M 0.5625 0 L 0.21875 0 C 0.175781 0 0.15625 -0.0195312 0.15625 -0.0625 L 0.15625 -1.4375 C 0.3125 -1.40625 0.429688 -1.335938 0.515625 -1.234375 C 0.597656 -1.128906 0.640625 -1 0.640625 -0.84375 L 0.640625 -0.0625 C 0.640625 -0.0195312 0.613281 0 0.5625 0 Z M 0.5625 0 "/></g></g></g><g fill="#7acb53" fill-opacity="1"><g transform="translate(43.776243, 19.680261)"><g><path d="M 1.0625 -1.46875 C 1.1875 -1.46875 1.285156 -1.4375 1.359375 -1.375 C 1.441406 -1.320312 1.5 -1.25 1.53125 -1.15625 C 1.570312 -1.0625 1.59375 -0.945312 1.59375 -0.8125 L 1.59375 -0.0625 C 1.59375 -0.0195312 1.570312 0 1.53125 0 L 1.171875 0 C 1.128906 0 1.109375 -0.0195312 1.109375 -0.0625 L 1.109375 -0.8125 C 1.109375 -0.894531 1.09375 -0.957031 1.0625 -1 C 1.03125 -1.050781 0.976562 -1.078125 0.90625 -1.078125 C 0.832031 -1.078125 0.769531 -1.050781 0.71875 -1 C 0.675781 -0.945312 0.648438 -0.878906 0.640625 -0.796875 L 0.640625 -0.0625 C 0.640625 -0.0195312 0.613281 0 0.5625 0 L 0.21875 0 C 0.175781 0 0.15625 -0.0195312 0.15625 -0.0625 L 0.15625 -1.4375 C 0.25 -1.425781 0.328125 -1.394531 0.390625 -1.34375 C 0.460938 -1.300781 0.519531 -1.242188 0.5625 -1.171875 C 0.632812 -1.273438 0.710938 -1.347656 0.796875 -1.390625 C 0.878906 -1.441406 0.96875 -1.46875 1.0625 -1.46875 Z M 1.0625 -1.46875 "/></g></g></g><g fill="#7acb53" fill-opacity="1"><g transform="translate(45.688086, 19.680261)"><g><path d="M 1.34375 -1.203125 C 1.425781 -1.359375 1.566406 -1.4375 1.765625 -1.4375 L 1.765625 0.125 C 1.765625 0.28125 1.726562 0.40625 1.65625 0.5 C 1.582031 0.601562 1.484375 0.675781 1.359375 0.71875 C 1.242188 0.769531 1.101562 0.796875 0.9375 0.796875 C 0.84375 0.796875 0.75 0.785156 0.65625 0.765625 C 0.5625 0.742188 0.476562 0.710938 0.40625 0.671875 C 0.332031 0.628906 0.269531 0.570312 0.21875 0.5 C 0.164062 0.4375 0.132812 0.351562 0.125 0.25 C 0.125 0.226562 0.128906 0.207031 0.140625 0.1875 C 0.148438 0.175781 0.164062 0.171875 0.1875 0.171875 L 0.53125 0.171875 C 0.570312 0.171875 0.597656 0.191406 0.609375 0.234375 C 0.617188 0.304688 0.65625 0.359375 0.71875 0.390625 C 0.78125 0.421875 0.859375 0.4375 0.953125 0.4375 C 1.054688 0.4375 1.132812 0.410156 1.1875 0.359375 C 1.25 0.316406 1.28125 0.238281 1.28125 0.125 L 1.28125 -0.140625 C 1.21875 -0.078125 1.144531 -0.03125 1.0625 0 C 0.976562 0.03125 0.890625 0.046875 0.796875 0.046875 C 0.691406 0.046875 0.59375 0.03125 0.5 0 C 0.414062 -0.0390625 0.34375 -0.09375 0.28125 -0.15625 C 0.226562 -0.226562 0.179688 -0.3125 0.140625 -0.40625 C 0.109375 -0.5 0.09375 -0.597656 0.09375 -0.703125 C 0.09375 -0.816406 0.109375 -0.921875 0.140625 -1.015625 C 0.179688 -1.109375 0.226562 -1.1875 0.28125 -1.25 C 0.34375 -1.320312 0.414062 -1.375 0.5 -1.40625 C 0.59375 -1.445312 0.691406 -1.46875 0.796875 -1.46875 C 0.910156 -1.46875 1.015625 -1.441406 1.109375 -1.390625 C 1.203125 -1.347656 1.28125 -1.285156 1.34375 -1.203125 Z M 0.9375 -0.328125 C 1.007812 -0.328125 1.066406 -0.34375 1.109375 -0.375 C 1.160156 -0.40625 1.203125 -0.445312 1.234375 -0.5 C 1.265625 -0.5625 1.28125 -0.628906 1.28125 -0.703125 C 1.28125 -0.773438 1.265625 -0.835938 1.234375 -0.890625 C 1.203125 -0.953125 1.160156 -1 1.109375 -1.03125 C 1.066406 -1.0625 1.007812 -1.078125 0.9375 -1.078125 C 0.875 -1.078125 0.816406 -1.0625 0.765625 -1.03125 C 0.710938 -1 0.671875 -0.953125 0.640625 -0.890625 C 0.617188 -0.835938 0.609375 -0.773438 0.609375 -0.703125 C 0.609375 -0.628906 0.617188 -0.5625 0.640625 -0.5 C 0.671875 -0.445312 0.710938 -0.40625 0.765625 -0.375 C 0.816406 -0.34375 0.875 -0.328125 0.9375 -0.328125 Z M 0.9375 -0.328125 "/></g></g></g><g fill="#7acb53" fill-opacity="1"><g transform="translate(47.78886, 19.680261)"><g/></g></g><g fill="#7acb53" fill-opacity="1"><g transform="translate(48.804078, 19.680261)"><g><path d="M 0.609375 -2.171875 L 0.890625 -2.171875 C 1.085938 -2.171875 1.242188 -2.140625 1.359375 -2.078125 C 1.472656 -2.023438 1.554688 -1.945312 1.609375 -1.84375 C 1.660156 -1.738281 1.6875 -1.617188 1.6875 -1.484375 C 1.6875 -1.335938 1.660156 -1.210938 1.609375 -1.109375 C 1.554688 -1.003906 1.472656 -0.921875 1.359375 -0.859375 C 1.242188 -0.804688 1.085938 -0.78125 0.890625 -0.78125 L 0.65625 -0.78125 L 0.65625 -0.609375 C 0.65625 -0.472656 0.632812 -0.351562 0.59375 -0.25 C 0.550781 -0.15625 0.492188 -0.0820312 0.421875 -0.03125 C 0.347656 0.0195312 0.265625 0.0507812 0.171875 0.0625 L 0.171875 -2.109375 C 0.171875 -2.148438 0.191406 -2.171875 0.234375 -2.171875 L 0.59375 -2.171875 C 0.59375 -2.171875 0.597656 -2.171875 0.609375 -2.171875 Z M 0.65625 -1.1875 L 0.84375 -1.1875 C 0.863281 -1.1875 0.890625 -1.1875 0.921875 -1.1875 C 0.953125 -1.1875 0.984375 -1.191406 1.015625 -1.203125 C 1.046875 -1.210938 1.070312 -1.226562 1.09375 -1.25 C 1.125 -1.269531 1.148438 -1.296875 1.171875 -1.328125 C 1.191406 -1.367188 1.203125 -1.421875 1.203125 -1.484375 C 1.203125 -1.535156 1.191406 -1.578125 1.171875 -1.609375 C 1.148438 -1.648438 1.125 -1.679688 1.09375 -1.703125 C 1.070312 -1.722656 1.046875 -1.734375 1.015625 -1.734375 C 0.984375 -1.742188 0.953125 -1.75 0.921875 -1.75 C 0.890625 -1.757812 0.863281 -1.765625 0.84375 -1.765625 L 0.65625 -1.765625 Z M 0.65625 -1.1875 "/></g></g></g><g fill="#7acb53" fill-opacity="1"><g transform="translate(50.658266, 19.680261)"><g><path d="M 1.359375 -1.1875 C 1.441406 -1.34375 1.578125 -1.425781 1.765625 -1.4375 L 1.765625 0.03125 C 1.578125 0.0078125 1.441406 -0.078125 1.359375 -0.234375 C 1.296875 -0.140625 1.21875 -0.0664062 1.125 -0.015625 C 1.03125 0.0234375 0.921875 0.046875 0.796875 0.046875 C 0.691406 0.046875 0.59375 0.03125 0.5 0 C 0.414062 -0.0390625 0.34375 -0.09375 0.28125 -0.15625 C 0.226562 -0.226562 0.179688 -0.3125 0.140625 -0.40625 C 0.109375 -0.5 0.09375 -0.597656 0.09375 -0.703125 C 0.09375 -0.816406 0.109375 -0.921875 0.140625 -1.015625 C 0.179688 -1.109375 0.226562 -1.1875 0.28125 -1.25 C 0.34375 -1.320312 0.414062 -1.375 0.5 -1.40625 C 0.59375 -1.445312 0.691406 -1.46875 0.796875 -1.46875 C 0.921875 -1.46875 1.03125 -1.441406 1.125 -1.390625 C 1.21875 -1.335938 1.296875 -1.269531 1.359375 -1.1875 Z M 0.9375 -0.328125 C 1.007812 -0.328125 1.066406 -0.34375 1.109375 -0.375 C 1.160156 -0.40625 1.203125 -0.445312 1.234375 -0.5 C 1.265625 -0.5625 1.28125 -0.628906 1.28125 -0.703125 C 1.28125 -0.773438 1.265625 -0.835938 1.234375 -0.890625 C 1.203125 -0.953125 1.160156 -1 1.109375 -1.03125 C 1.066406 -1.0625 1.007812 -1.078125 0.9375 -1.078125 C 0.875 -1.078125 0.816406 -1.0625 0.765625 -1.03125 C 0.710938 -1 0.671875 -0.953125 0.640625 -0.890625 C 0.617188 -0.835938 0.609375 -0.773438 0.609375 -0.703125 C 0.609375 -0.628906 0.617188 -0.5625 0.640625 -0.5 C 0.671875 -0.445312 0.710938 -0.40625 0.765625 -0.375 C 0.816406 -0.34375 0.875 -0.328125 0.9375 -0.328125 Z M 0.9375 -0.328125 "/></g></g></g><g fill="#7acb53" fill-opacity="1"><g transform="translate(52.75904, 19.680261)"><g><path d="M 0.78125 -1.40625 L 1 -1.40625 C 1.039062 -1.40625 1.0625 -1.382812 1.0625 -1.34375 L 1.0625 -1.109375 C 1.0625 -1.066406 1.039062 -1.046875 1 -1.046875 L 0.78125 -1.046875 L 0.78125 -0.0625 C 0.78125 -0.0195312 0.757812 0 0.71875 0 L 0.375 0 C 0.332031 0 0.3125 -0.0195312 0.3125 -0.0625 L 0.3125 -1.046875 L 0.109375 -1.046875 C 0.0546875 -1.046875 0.03125 -1.066406 0.03125 -1.109375 L 0.03125 -1.34375 C 0.03125 -1.382812 0.0546875 -1.40625 0.109375 -1.40625 L 0.3125 -1.40625 C 0.3125 -1.570312 0.351562 -1.707031 0.4375 -1.8125 C 0.519531 -1.914062 0.632812 -1.984375 0.78125 -2.015625 Z M 0.78125 -1.40625 "/></g></g></g><g fill="#7acb53" fill-opacity="1"><g transform="translate(54.040043, 19.680261)"><g><path d="M 0.375 -1.6875 C 0.3125 -1.6875 0.253906 -1.695312 0.203125 -1.71875 C 0.148438 -1.738281 0.101562 -1.765625 0.0625 -1.796875 C 0.03125 -1.835938 0.015625 -1.890625 0.015625 -1.953125 C 0.015625 -2.003906 0.03125 -2.050781 0.0625 -2.09375 C 0.101562 -2.132812 0.148438 -2.160156 0.203125 -2.171875 C 0.253906 -2.191406 0.3125 -2.203125 0.375 -2.203125 C 0.425781 -2.203125 0.476562 -2.191406 0.53125 -2.171875 C 0.59375 -2.160156 0.640625 -2.132812 0.671875 -2.09375 C 0.703125 -2.050781 0.71875 -2.003906 0.71875 -1.953125 C 0.71875 -1.890625 0.703125 -1.835938 0.671875 -1.796875 C 0.640625 -1.765625 0.59375 -1.738281 0.53125 -1.71875 C 0.476562 -1.695312 0.425781 -1.6875 0.375 -1.6875 Z M 0.5625 0 L 0.21875 0 C 0.175781 0 0.15625 -0.0195312 0.15625 -0.0625 L 0.15625 -1.4375 C 0.3125 -1.40625 0.429688 -1.335938 0.515625 -1.234375 C 0.597656 -1.128906 0.640625 -1 0.640625 -0.84375 L 0.640625 -0.0625 C 0.640625 -0.0195312 0.613281 0 0.5625 0 Z M 0.5625 0 "/></g></g></g><g fill="#7acb53" fill-opacity="1"><g transform="translate(54.991218, 19.680261)"><g><path d="M 0.90625 -1.46875 C 1.019531 -1.46875 1.125 -1.453125 1.21875 -1.421875 C 1.3125 -1.390625 1.390625 -1.34375 1.453125 -1.28125 C 1.523438 -1.21875 1.582031 -1.140625 1.625 -1.046875 C 1.664062 -0.953125 1.6875 -0.847656 1.6875 -0.734375 L 1.6875 -0.671875 C 1.6875 -0.628906 1.664062 -0.609375 1.625 -0.609375 L 0.59375 -0.609375 C 0.601562 -0.515625 0.632812 -0.4375 0.6875 -0.375 C 0.738281 -0.320312 0.8125 -0.296875 0.90625 -0.296875 C 0.96875 -0.296875 1.019531 -0.304688 1.0625 -0.328125 C 1.113281 -0.359375 1.148438 -0.394531 1.171875 -0.4375 C 1.179688 -0.457031 1.191406 -0.472656 1.203125 -0.484375 C 1.210938 -0.492188 1.226562 -0.5 1.25 -0.5 L 1.59375 -0.5 C 1.613281 -0.5 1.628906 -0.488281 1.640625 -0.46875 C 1.660156 -0.457031 1.664062 -0.441406 1.65625 -0.421875 C 1.613281 -0.316406 1.554688 -0.226562 1.484375 -0.15625 C 1.410156 -0.0820312 1.320312 -0.03125 1.21875 0 C 1.125 0.03125 1.019531 0.046875 0.90625 0.046875 C 0.789062 0.046875 0.679688 0.03125 0.578125 0 C 0.472656 -0.03125 0.382812 -0.078125 0.3125 -0.140625 C 0.238281 -0.210938 0.179688 -0.296875 0.140625 -0.390625 C 0.109375 -0.484375 0.09375 -0.585938 0.09375 -0.703125 C 0.09375 -0.816406 0.109375 -0.921875 0.140625 -1.015625 C 0.179688 -1.109375 0.238281 -1.1875 0.3125 -1.25 C 0.394531 -1.320312 0.484375 -1.375 0.578125 -1.40625 C 0.679688 -1.445312 0.789062 -1.46875 0.90625 -1.46875 Z M 0.609375 -0.875 L 1.1875 -0.875 C 1.175781 -0.945312 1.144531 -1.007812 1.09375 -1.0625 C 1.039062 -1.113281 0.972656 -1.140625 0.890625 -1.140625 C 0.804688 -1.140625 0.738281 -1.113281 0.6875 -1.0625 C 0.644531 -1.007812 0.617188 -0.945312 0.609375 -0.875 Z M 0.609375 -0.875 "/></g></g></g><g fill="#7acb53" fill-opacity="1"><g transform="translate(56.957497, 19.680261)"><g><path d="M 1.0625 -1.46875 C 1.1875 -1.46875 1.285156 -1.4375 1.359375 -1.375 C 1.441406 -1.320312 1.5 -1.25 1.53125 -1.15625 C 1.570312 -1.0625 1.59375 -0.945312 1.59375 -0.8125 L 1.59375 -0.0625 C 1.59375 -0.0195312 1.570312 0 1.53125 0 L 1.171875 0 C 1.128906 0 1.109375 -0.0195312 1.109375 -0.0625 L 1.109375 -0.8125 C 1.109375 -0.894531 1.09375 -0.957031 1.0625 -1 C 1.03125 -1.050781 0.976562 -1.078125 0.90625 -1.078125 C 0.832031 -1.078125 0.769531 -1.050781 0.71875 -1 C 0.675781 -0.945312 0.648438 -0.878906 0.640625 -0.796875 L 0.640625 -0.0625 C 0.640625 -0.0195312 0.613281 0 0.5625 0 L 0.21875 0 C 0.175781 0 0.15625 -0.0195312 0.15625 -0.0625 L 0.15625 -1.4375 C 0.25 -1.425781 0.328125 -1.394531 0.390625 -1.34375 C 0.460938 -1.300781 0.519531 -1.242188 0.5625 -1.171875 C 0.632812 -1.273438 0.710938 -1.347656 0.796875 -1.390625 C 0.878906 -1.441406 0.96875 -1.46875 1.0625 -1.46875 Z M 1.0625 -1.46875 "/></g></g></g><g fill="#7acb53" fill-opacity="1"><g transform="translate(58.869339, 19.680261)"><g><path d="M 0.78125 -1.40625 L 1 -1.40625 C 1.039062 -1.40625 1.0625 -1.382812 1.0625 -1.34375 L 1.0625 -1.109375 C 1.0625 -1.066406 1.039062 -1.046875 1 -1.046875 L 0.78125 -1.046875 L 0.78125 -0.0625 C 0.78125 -0.0195312 0.757812 0 0.71875 0 L 0.375 0 C 0.332031 0 0.3125 -0.0195312 0.3125 -0.0625 L 0.3125 -1.046875 L 0.109375 -1.046875 C 0.0546875 -1.046875 0.03125 -1.066406 0.03125 -1.109375 L 0.03125 -1.34375 C 0.03125 -1.382812 0.0546875 -1.40625 0.109375 -1.40625 L 0.3125 -1.40625 C 0.3125 -1.570312 0.351562 -1.707031 0.4375 -1.8125 C 0.519531 -1.914062 0.632812 -1.984375 0.78125 -2.015625 Z M 0.78125 -1.40625 "/></g></g></g><g fill="#7acb53" fill-opacity="1"><g transform="translate(60.150342, 19.680261)"><g><path d="M 0.859375 0.046875 C 0.722656 0.046875 0.597656 0.03125 0.484375 0 C 0.378906 -0.0390625 0.289062 -0.0976562 0.21875 -0.171875 C 0.144531 -0.242188 0.0976562 -0.335938 0.078125 -0.453125 C 0.078125 -0.472656 0.0820312 -0.488281 0.09375 -0.5 C 0.101562 -0.519531 0.117188 -0.53125 0.140625 -0.53125 L 0.5 -0.53125 C 0.507812 -0.53125 0.519531 -0.523438 0.53125 -0.515625 C 0.539062 -0.503906 0.550781 -0.488281 0.5625 -0.46875 C 0.570312 -0.425781 0.585938 -0.394531 0.609375 -0.375 C 0.628906 -0.351562 0.65625 -0.332031 0.6875 -0.3125 C 0.71875 -0.300781 0.75 -0.289062 0.78125 -0.28125 C 0.8125 -0.28125 0.835938 -0.28125 0.859375 -0.28125 C 0.929688 -0.28125 0.984375 -0.289062 1.015625 -0.3125 C 1.054688 -0.34375 1.078125 -0.378906 1.078125 -0.421875 C 1.078125 -0.453125 1.0625 -0.476562 1.03125 -0.5 C 1.007812 -0.519531 0.976562 -0.535156 0.9375 -0.546875 C 0.894531 -0.554688 0.84375 -0.5625 0.78125 -0.5625 C 0.726562 -0.570312 0.671875 -0.582031 0.609375 -0.59375 C 0.546875 -0.601562 0.488281 -0.617188 0.4375 -0.640625 C 0.382812 -0.660156 0.332031 -0.679688 0.28125 -0.703125 C 0.238281 -0.734375 0.203125 -0.773438 0.171875 -0.828125 C 0.148438 -0.878906 0.140625 -0.941406 0.140625 -1.015625 C 0.140625 -1.097656 0.164062 -1.171875 0.21875 -1.234375 C 0.269531 -1.304688 0.34375 -1.363281 0.4375 -1.40625 C 0.539062 -1.445312 0.664062 -1.46875 0.8125 -1.46875 C 1 -1.46875 1.148438 -1.429688 1.265625 -1.359375 C 1.390625 -1.296875 1.46875 -1.191406 1.5 -1.046875 C 1.5 -1.023438 1.492188 -1.007812 1.484375 -1 C 1.472656 -0.988281 1.457031 -0.984375 1.4375 -0.984375 L 1.09375 -0.984375 C 1.0625 -0.984375 1.039062 -1 1.03125 -1.03125 C 1.007812 -1.070312 0.976562 -1.101562 0.9375 -1.125 C 0.90625 -1.15625 0.851562 -1.171875 0.78125 -1.171875 C 0.726562 -1.171875 0.6875 -1.160156 0.65625 -1.140625 C 0.632812 -1.117188 0.625 -1.097656 0.625 -1.078125 C 0.625 -1.046875 0.632812 -1.019531 0.65625 -1 C 0.6875 -0.976562 0.722656 -0.960938 0.765625 -0.953125 C 0.816406 -0.941406 0.867188 -0.929688 0.921875 -0.921875 C 0.972656 -0.910156 1.03125 -0.898438 1.09375 -0.890625 C 1.15625 -0.878906 1.210938 -0.863281 1.265625 -0.84375 C 1.328125 -0.820312 1.378906 -0.796875 1.421875 -0.765625 C 1.460938 -0.734375 1.492188 -0.691406 1.515625 -0.640625 C 1.546875 -0.597656 1.5625 -0.539062 1.5625 -0.46875 C 1.5625 -0.351562 1.53125 -0.257812 1.46875 -0.1875 C 1.414062 -0.113281 1.335938 -0.0546875 1.234375 -0.015625 C 1.128906 0.0234375 1.003906 0.046875 0.859375 0.046875 Z M 0.859375 0.046875 "/></g></g></g><g fill="#7acb53" fill-opacity="1"><g transform="translate(61.988532, 19.680261)"><g/></g></g><g fill="#7acb53" fill-opacity="1"><g transform="translate(63.003748, 19.680261)"><g><path d="M 1.25 -2.125 L 2.03125 -0.078125 C 2.03125 -0.0664062 2.03125 -0.0546875 2.03125 -0.046875 C 2.03125 -0.0351562 2.023438 -0.0234375 2.015625 -0.015625 C 2.003906 -0.00390625 1.988281 0 1.96875 0 L 1.59375 0 C 1.570312 0 1.554688 0 1.546875 0 C 1.535156 -0.0078125 1.523438 -0.0234375 1.515625 -0.046875 L 1.390625 -0.4375 L 1.28125 -0.4375 C 1.144531 -0.4375 1.035156 -0.460938 0.953125 -0.515625 C 0.867188 -0.566406 0.8125 -0.628906 0.78125 -0.703125 C 0.726562 -0.546875 0.660156 -0.410156 0.578125 -0.296875 C 0.503906 -0.191406 0.414062 -0.109375 0.3125 -0.046875 C 0.207031 0.00390625 0.0976562 0.0390625 -0.015625 0.0625 L 0.8125 -2.125 C 0.820312 -2.15625 0.84375 -2.171875 0.875 -2.171875 L 1.171875 -2.171875 C 1.210938 -2.171875 1.238281 -2.15625 1.25 -2.125 Z M 1.03125 -1.546875 L 0.8125 -0.828125 L 1.265625 -0.828125 Z M 1.03125 -1.546875 "/></g></g></g><g fill="#7acb53" fill-opacity="1"><g transform="translate(65.229407, 19.680261)"><g><path d="M 1.0625 -1.46875 C 1.1875 -1.46875 1.285156 -1.4375 1.359375 -1.375 C 1.441406 -1.320312 1.5 -1.25 1.53125 -1.15625 C 1.570312 -1.0625 1.59375 -0.945312 1.59375 -0.8125 L 1.59375 -0.0625 C 1.59375 -0.0195312 1.570312 0 1.53125 0 L 1.171875 0 C 1.128906 0 1.109375 -0.0195312 1.109375 -0.0625 L 1.109375 -0.8125 C 1.109375 -0.894531 1.09375 -0.957031 1.0625 -1 C 1.03125 -1.050781 0.976562 -1.078125 0.90625 -1.078125 C 0.832031 -1.078125 0.769531 -1.050781 0.71875 -1 C 0.675781 -0.945312 0.648438 -0.878906 0.640625 -0.796875 L 0.640625 -0.0625 C 0.640625 -0.0195312 0.613281 0 0.5625 0 L 0.21875 0 C 0.175781 0 0.15625 -0.0195312 0.15625 -0.0625 L 0.15625 -1.4375 C 0.25 -1.425781 0.328125 -1.394531 0.390625 -1.34375 C 0.460938 -1.300781 0.519531 -1.242188 0.5625 -1.171875 C 0.632812 -1.273438 0.710938 -1.347656 0.796875 -1.390625 C 0.878906 -1.441406 0.96875 -1.46875 1.0625 -1.46875 Z M 1.0625 -1.46875 "/></g></g></g><g fill="#7acb53" fill-opacity="1"><g transform="translate(67.141249, 19.680261)"><g><path d="M 1.28125 -1.28125 L 1.28125 -2.40625 C 1.4375 -2.375 1.554688 -2.304688 1.640625 -2.203125 C 1.722656 -2.097656 1.765625 -1.960938 1.765625 -1.796875 L 1.765625 0.03125 C 1.566406 0.03125 1.425781 -0.0507812 1.34375 -0.21875 C 1.28125 -0.132812 1.203125 -0.0664062 1.109375 -0.015625 C 1.015625 0.0234375 0.910156 0.046875 0.796875 0.046875 C 0.691406 0.046875 0.59375 0.03125 0.5 0 C 0.414062 -0.0390625 0.34375 -0.09375 0.28125 -0.15625 C 0.226562 -0.226562 0.179688 -0.3125 0.140625 -0.40625 C 0.109375 -0.5 0.09375 -0.597656 0.09375 -0.703125 C 0.09375 -0.816406 0.109375 -0.921875 0.140625 -1.015625 C 0.179688 -1.109375 0.226562 -1.1875 0.28125 -1.25 C 0.34375 -1.320312 0.414062 -1.375 0.5 -1.40625 C 0.59375 -1.445312 0.691406 -1.46875 0.796875 -1.46875 C 0.890625 -1.46875 0.976562 -1.453125 1.0625 -1.421875 C 1.144531 -1.390625 1.21875 -1.34375 1.28125 -1.28125 Z M 0.9375 -0.328125 C 1.007812 -0.328125 1.066406 -0.34375 1.109375 -0.375 C 1.160156 -0.40625 1.203125 -0.445312 1.234375 -0.5 C 1.265625 -0.5625 1.28125 -0.628906 1.28125 -0.703125 C 1.28125 -0.773438 1.265625 -0.835938 1.234375 -0.890625 C 1.203125 -0.953125 1.160156 -1 1.109375 -1.03125 C 1.066406 -1.0625 1.007812 -1.078125 0.9375 -1.078125 C 0.875 -1.078125 0.816406 -1.0625 0.765625 -1.03125 C 0.710938 -1 0.671875 -0.953125 0.640625 -0.890625 C 0.617188 -0.835938 0.609375 -0.773438 0.609375 -0.703125 C 0.609375 -0.628906 0.617188 -0.5625 0.640625 -0.5 C 0.671875 -0.445312 0.710938 -0.40625 0.765625 -0.375 C 0.816406 -0.34375 0.875 -0.328125 0.9375 -0.328125 Z M 0.9375 -0.328125 "/></g></g></g><g fill="#7acb53" fill-opacity="1"><g transform="translate(69.242022, 19.680261)"><g/></g></g><g fill="#7acb53" fill-opacity="1"><g transform="translate(70.257238, 19.680261)"><g><path d="M 0.75 0 L 0.234375 0 C 0.191406 0 0.171875 -0.0195312 0.171875 -0.0625 L 0.171875 -2.109375 C 0.171875 -2.148438 0.191406 -2.171875 0.234375 -2.171875 L 0.75 -2.171875 C 0.957031 -2.171875 1.132812 -2.144531 1.28125 -2.09375 C 1.425781 -2.039062 1.546875 -1.960938 1.640625 -1.859375 C 1.742188 -1.765625 1.816406 -1.648438 1.859375 -1.515625 C 1.910156 -1.378906 1.9375 -1.238281 1.9375 -1.09375 C 1.9375 -0.9375 1.910156 -0.789062 1.859375 -0.65625 C 1.816406 -0.53125 1.742188 -0.414062 1.640625 -0.3125 C 1.546875 -0.21875 1.425781 -0.140625 1.28125 -0.078125 C 1.132812 -0.0234375 0.957031 0 0.75 0 Z M 0.65625 -1.75 L 0.65625 -0.4375 L 0.796875 -0.4375 C 0.910156 -0.4375 1.007812 -0.453125 1.09375 -0.484375 C 1.175781 -0.515625 1.242188 -0.5625 1.296875 -0.625 C 1.347656 -0.6875 1.382812 -0.753906 1.40625 -0.828125 C 1.4375 -0.910156 1.453125 -1 1.453125 -1.09375 C 1.453125 -1.175781 1.4375 -1.257812 1.40625 -1.34375 C 1.382812 -1.425781 1.347656 -1.492188 1.296875 -1.546875 C 1.242188 -1.609375 1.175781 -1.65625 1.09375 -1.6875 C 1.019531 -1.726562 0.921875 -1.75 0.796875 -1.75 Z M 0.65625 -1.75 "/></g></g></g><g fill="#7acb53" fill-opacity="1"><g transform="translate(72.460482, 19.680261)"><g><path d="M 0.890625 0.046875 C 0.765625 0.046875 0.648438 0.03125 0.546875 0 C 0.453125 -0.0390625 0.367188 -0.09375 0.296875 -0.15625 C 0.234375 -0.226562 0.179688 -0.3125 0.140625 -0.40625 C 0.109375 -0.5 0.09375 -0.597656 0.09375 -0.703125 C 0.09375 -0.816406 0.109375 -0.914062 0.140625 -1 C 0.179688 -1.09375 0.234375 -1.175781 0.296875 -1.25 C 0.367188 -1.320312 0.453125 -1.375 0.546875 -1.40625 C 0.648438 -1.445312 0.765625 -1.46875 0.890625 -1.46875 C 1.015625 -1.46875 1.125 -1.445312 1.21875 -1.40625 C 1.320312 -1.375 1.410156 -1.320312 1.484375 -1.25 C 1.554688 -1.175781 1.609375 -1.09375 1.640625 -1 C 1.679688 -0.914062 1.703125 -0.816406 1.703125 -0.703125 C 1.703125 -0.554688 1.671875 -0.425781 1.609375 -0.3125 C 1.546875 -0.195312 1.453125 -0.109375 1.328125 -0.046875 C 1.203125 0.015625 1.054688 0.046875 0.890625 0.046875 Z M 0.890625 -0.328125 C 0.960938 -0.328125 1.019531 -0.34375 1.0625 -0.375 C 1.113281 -0.40625 1.148438 -0.445312 1.171875 -0.5 C 1.203125 -0.5625 1.21875 -0.628906 1.21875 -0.703125 C 1.21875 -0.773438 1.203125 -0.835938 1.171875 -0.890625 C 1.148438 -0.953125 1.113281 -1 1.0625 -1.03125 C 1.019531 -1.070312 0.960938 -1.09375 0.890625 -1.09375 C 0.828125 -1.09375 0.769531 -1.070312 0.71875 -1.03125 C 0.664062 -1 0.625 -0.953125 0.59375 -0.890625 C 0.570312 -0.835938 0.5625 -0.773438 0.5625 -0.703125 C 0.5625 -0.628906 0.570312 -0.5625 0.59375 -0.5 C 0.625 -0.445312 0.664062 -0.40625 0.71875 -0.375 C 0.769531 -0.34375 0.828125 -0.328125 0.890625 -0.328125 Z M 0.890625 -0.328125 "/></g></g></g><g fill="#7acb53" fill-opacity="1"><g transform="translate(74.436369, 19.680261)"><g><path d="M 0.84375 0.046875 C 0.726562 0.046875 0.625 0.03125 0.53125 0 C 0.4375 -0.0390625 0.351562 -0.0976562 0.28125 -0.171875 C 0.21875 -0.242188 0.171875 -0.320312 0.140625 -0.40625 C 0.109375 -0.5 0.09375 -0.597656 0.09375 -0.703125 C 0.09375 -0.804688 0.109375 -0.90625 0.140625 -1 C 0.171875 -1.09375 0.21875 -1.171875 0.28125 -1.234375 C 0.351562 -1.304688 0.4375 -1.363281 0.53125 -1.40625 C 0.625 -1.445312 0.726562 -1.46875 0.84375 -1.46875 C 0.988281 -1.46875 1.113281 -1.441406 1.21875 -1.390625 C 1.320312 -1.335938 1.40625 -1.269531 1.46875 -1.1875 C 1.539062 -1.101562 1.585938 -1.007812 1.609375 -0.90625 C 1.609375 -0.882812 1.601562 -0.867188 1.59375 -0.859375 C 1.582031 -0.847656 1.566406 -0.84375 1.546875 -0.84375 L 1.1875 -0.84375 C 1.15625 -0.84375 1.132812 -0.863281 1.125 -0.90625 C 1.113281 -0.96875 1.085938 -1.015625 1.046875 -1.046875 C 1.003906 -1.078125 0.945312 -1.09375 0.875 -1.09375 C 0.820312 -1.09375 0.773438 -1.082031 0.734375 -1.0625 C 0.691406 -1.039062 0.660156 -1.007812 0.640625 -0.96875 C 0.617188 -0.9375 0.597656 -0.894531 0.578125 -0.84375 C 0.566406 -0.800781 0.5625 -0.753906 0.5625 -0.703125 C 0.5625 -0.640625 0.570312 -0.578125 0.59375 -0.515625 C 0.613281 -0.453125 0.644531 -0.398438 0.6875 -0.359375 C 0.738281 -0.328125 0.800781 -0.3125 0.875 -0.3125 C 0.945312 -0.3125 1.003906 -0.328125 1.046875 -0.359375 C 1.085938 -0.398438 1.113281 -0.453125 1.125 -0.515625 C 1.132812 -0.546875 1.15625 -0.5625 1.1875 -0.5625 L 1.546875 -0.5625 C 1.566406 -0.5625 1.582031 -0.554688 1.59375 -0.546875 C 1.601562 -0.546875 1.609375 -0.535156 1.609375 -0.515625 C 1.585938 -0.410156 1.546875 -0.3125 1.484375 -0.21875 C 1.421875 -0.132812 1.332031 -0.0664062 1.21875 -0.015625 C 1.113281 0.0234375 0.988281 0.046875 0.84375 0.046875 Z M 0.84375 0.046875 "/></g></g></g><g fill="#7acb53" fill-opacity="1"><g transform="translate(76.319389, 19.680261)"><g><path d="M 0.78125 -1.40625 L 1 -1.40625 C 1.039062 -1.40625 1.0625 -1.382812 1.0625 -1.34375 L 1.0625 -1.109375 C 1.0625 -1.066406 1.039062 -1.046875 1 -1.046875 L 0.78125 -1.046875 L 0.78125 -0.0625 C 0.78125 -0.0195312 0.757812 0 0.71875 0 L 0.375 0 C 0.332031 0 0.3125 -0.0195312 0.3125 -0.0625 L 0.3125 -1.046875 L 0.109375 -1.046875 C 0.0546875 -1.046875 0.03125 -1.066406 0.03125 -1.109375 L 0.03125 -1.34375 C 0.03125 -1.382812 0.0546875 -1.40625 0.109375 -1.40625 L 0.3125 -1.40625 C 0.3125 -1.570312 0.351562 -1.707031 0.4375 -1.8125 C 0.519531 -1.914062 0.632812 -1.984375 0.78125 -2.015625 Z M 0.78125 -1.40625 "/></g></g></g><g fill="#7acb53" fill-opacity="1"><g transform="translate(77.600392, 19.680261)"><g><path d="M 0.890625 0.046875 C 0.765625 0.046875 0.648438 0.03125 0.546875 0 C 0.453125 -0.0390625 0.367188 -0.09375 0.296875 -0.15625 C 0.234375 -0.226562 0.179688 -0.3125 0.140625 -0.40625 C 0.109375 -0.5 0.09375 -0.597656 0.09375 -0.703125 C 0.09375 -0.816406 0.109375 -0.914062 0.140625 -1 C 0.179688 -1.09375 0.234375 -1.175781 0.296875 -1.25 C 0.367188 -1.320312 0.453125 -1.375 0.546875 -1.40625 C 0.648438 -1.445312 0.765625 -1.46875 0.890625 -1.46875 C 1.015625 -1.46875 1.125 -1.445312 1.21875 -1.40625 C 1.320312 -1.375 1.410156 -1.320312 1.484375 -1.25 C 1.554688 -1.175781 1.609375 -1.09375 1.640625 -1 C 1.679688 -0.914062 1.703125 -0.816406 1.703125 -0.703125 C 1.703125 -0.554688 1.671875 -0.425781 1.609375 -0.3125 C 1.546875 -0.195312 1.453125 -0.109375 1.328125 -0.046875 C 1.203125 0.015625 1.054688 0.046875 0.890625 0.046875 Z M 0.890625 -0.328125 C 0.960938 -0.328125 1.019531 -0.34375 1.0625 -0.375 C 1.113281 -0.40625 1.148438 -0.445312 1.171875 -0.5 C 1.203125 -0.5625 1.21875 -0.628906 1.21875 -0.703125 C 1.21875 -0.773438 1.203125 -0.835938 1.171875 -0.890625 C 1.148438 -0.953125 1.113281 -1 1.0625 -1.03125 C 1.019531 -1.070312 0.960938 -1.09375 0.890625 -1.09375 C 0.828125 -1.09375 0.769531 -1.070312 0.71875 -1.03125 C 0.664062 -1 0.625 -0.953125 0.59375 -0.890625 C 0.570312 -0.835938 0.5625 -0.773438 0.5625 -0.703125 C 0.5625 -0.628906 0.570312 -0.5625 0.59375 -0.5 C 0.625 -0.445312 0.664062 -0.40625 0.71875 -0.375 C 0.769531 -0.34375 0.828125 -0.328125 0.890625 -0.328125 Z M 0.890625 -0.328125 "/></g></g></g><g fill="#7acb53" fill-opacity="1"><g transform="translate(79.576282, 19.680261)"><g><path d="M 1.09375 -1.4375 C 1.113281 -1.425781 1.125 -1.414062 1.125 -1.40625 C 1.132812 -1.394531 1.140625 -1.378906 1.140625 -1.359375 L 1.140625 -1.046875 C 1.140625 -1.015625 1.132812 -0.992188 1.125 -0.984375 C 1.113281 -0.984375 1.097656 -0.984375 1.078125 -0.984375 C 1.015625 -1.003906 0.960938 -1.015625 0.921875 -1.015625 C 0.742188 -1.015625 0.648438 -0.914062 0.640625 -0.71875 L 0.640625 -0.0625 C 0.640625 -0.0195312 0.613281 0 0.5625 0 L 0.21875 0 C 0.175781 0 0.15625 -0.0195312 0.15625 -0.0625 L 0.15625 -1.4375 C 0.34375 -1.40625 0.476562 -1.3125 0.5625 -1.15625 C 0.613281 -1.257812 0.675781 -1.332031 0.75 -1.375 C 0.820312 -1.414062 0.898438 -1.4375 0.984375 -1.4375 C 1.003906 -1.4375 1.023438 -1.4375 1.046875 -1.4375 C 1.066406 -1.4375 1.082031 -1.4375 1.09375 -1.4375 Z M 1.09375 -1.4375 "/></g></g></g><g fill="#7acb53" fill-opacity="1"><g transform="translate(80.959759, 19.680261)"><g><path d="M 0.859375 0.046875 C 0.722656 0.046875 0.597656 0.03125 0.484375 0 C 0.378906 -0.0390625 0.289062 -0.0976562 0.21875 -0.171875 C 0.144531 -0.242188 0.0976562 -0.335938 0.078125 -0.453125 C 0.078125 -0.472656 0.0820312 -0.488281 0.09375 -0.5 C 0.101562 -0.519531 0.117188 -0.53125 0.140625 -0.53125 L 0.5 -0.53125 C 0.507812 -0.53125 0.519531 -0.523438 0.53125 -0.515625 C 0.539062 -0.503906 0.550781 -0.488281 0.5625 -0.46875 C 0.570312 -0.425781 0.585938 -0.394531 0.609375 -0.375 C 0.628906 -0.351562 0.65625 -0.332031 0.6875 -0.3125 C 0.71875 -0.300781 0.75 -0.289062 0.78125 -0.28125 C 0.8125 -0.28125 0.835938 -0.28125 0.859375 -0.28125 C 0.929688 -0.28125 0.984375 -0.289062 1.015625 -0.3125 C 1.054688 -0.34375 1.078125 -0.378906 1.078125 -0.421875 C 1.078125 -0.453125 1.0625 -0.476562 1.03125 -0.5 C 1.007812 -0.519531 0.976562 -0.535156 0.9375 -0.546875 C 0.894531 -0.554688 0.84375 -0.5625 0.78125 -0.5625 C 0.726562 -0.570312 0.671875 -0.582031 0.609375 -0.59375 C 0.546875 -0.601562 0.488281 -0.617188 0.4375 -0.640625 C 0.382812 -0.660156 0.332031 -0.679688 0.28125 -0.703125 C 0.238281 -0.734375 0.203125 -0.773438 0.171875 -0.828125 C 0.148438 -0.878906 0.140625 -0.941406 0.140625 -1.015625 C 0.140625 -1.097656 0.164062 -1.171875 0.21875 -1.234375 C 0.269531 -1.304688 0.34375 -1.363281 0.4375 -1.40625 C 0.539062 -1.445312 0.664062 -1.46875 0.8125 -1.46875 C 1 -1.46875 1.148438 -1.429688 1.265625 -1.359375 C 1.390625 -1.296875 1.46875 -1.191406 1.5 -1.046875 C 1.5 -1.023438 1.492188 -1.007812 1.484375 -1 C 1.472656 -0.988281 1.457031 -0.984375 1.4375 -0.984375 L 1.09375 -0.984375 C 1.0625 -0.984375 1.039062 -1 1.03125 -1.03125 C 1.007812 -1.070312 0.976562 -1.101562 0.9375 -1.125 C 0.90625 -1.15625 0.851562 -1.171875 0.78125 -1.171875 C 0.726562 -1.171875 0.6875 -1.160156 0.65625 -1.140625 C 0.632812 -1.117188 0.625 -1.097656 0.625 -1.078125 C 0.625 -1.046875 0.632812 -1.019531 0.65625 -1 C 0.6875 -0.976562 0.722656 -0.960938 0.765625 -0.953125 C 0.816406 -0.941406 0.867188 -0.929688 0.921875 -0.921875 C 0.972656 -0.910156 1.03125 -0.898438 1.09375 -0.890625 C 1.15625 -0.878906 1.210938 -0.863281 1.265625 -0.84375 C 1.328125 -0.820312 1.378906 -0.796875 1.421875 -0.765625 C 1.460938 -0.734375 1.492188 -0.691406 1.515625 -0.640625 C 1.546875 -0.597656 1.5625 -0.539062 1.5625 -0.46875 C 1.5625 -0.351562 1.53125 -0.257812 1.46875 -0.1875 C 1.414062 -0.113281 1.335938 -0.0546875 1.234375 -0.015625 C 1.128906 0.0234375 1.003906 0.046875 0.859375 0.046875 Z M 0.859375 0.046875 "/></g></g></g><g clip-path="url(#8747ac8700)"><path fill="#008080" d="M 34.9375 3.472656 C 33.523438 2.125 31.632812 1.375 29.683594 1.382812 C 27.667969 1.390625 25.777344 2.179688 24.351562 3.601562 L 21.636719 6.320312 L 18.988281 3.671875 C 16.039062 0.71875 11.234375 0.628906 8.253906 3.550781 C 5.246094 6.5 5.230469 11.347656 8.203125 14.320312 L 22.585938 28.703125 C 24.226562 30.34375 24.304688 33.019531 22.695312 34.691406 C 21.046875 36.402344 18.3125 36.421875 16.640625 34.75 L 13.078125 31.1875 C 12.925781 31.039062 12.910156 30.800781 13.042969 30.628906 C 13.566406 29.9375 13.859375 29.058594 13.792969 28.109375 C 13.664062 26.238281 12.136719 24.734375 10.261719 24.636719 C 8.09375 24.523438 6.296875 26.273438 6.324219 28.421875 C 6.351562 30.414062 7.976562 32.058594 9.964844 32.109375 C 10.609375 32.125 11.214844 31.980469 11.75 31.707031 C 11.910156 31.625 12.109375 31.660156 12.238281 31.789062 L 15.917969 35.46875 C 16.945312 36.496094 18.289062 37.007812 19.636719 37.007812 C 20.984375 37.007812 22.328125 36.496094 23.355469 35.46875 C 25.40625 33.421875 25.40625 30.082031 23.355469 28.035156 L 8.921875 13.601562 C 6.363281 11.042969 6.363281 6.878906 8.921875 4.324219 C 11.480469 1.765625 15.640625 1.765625 18.199219 4.324219 L 21.261719 7.386719 C 21.367188 7.488281 21.5 7.539062 21.636719 7.535156 C 21.769531 7.539062 21.90625 7.488281 22.007812 7.386719 L 25.011719 4.382812 C 26.257812 3.140625 27.9375 2.40625 29.699219 2.402344 C 31.457031 2.398438 33.109375 3.082031 34.351562 4.324219 C 35.59375 5.566406 36.273438 7.214844 36.273438 8.972656 C 36.269531 10.734375 35.535156 12.414062 34.289062 13.660156 L 33.320312 14.632812 C 33.238281 14.710938 33.132812 14.757812 33.019531 14.757812 L 30.125 14.757812 C 29.964844 14.757812 29.816406 14.667969 29.746094 14.523438 L 28.347656 11.726562 C 28.191406 11.414062 27.746094 11.414062 27.589844 11.726562 L 25.1875 16.527344 C 25.03125 16.839844 24.585938 16.839844 24.429688 16.527344 L 23.609375 14.886719 C 23.453125 14.574219 23.007812 14.574219 22.851562 14.886719 L 22.03125 16.527344 C 21.875 16.839844 21.425781 16.839844 21.269531 16.527344 L 18.871094 11.726562 C 18.714844 11.414062 18.269531 11.414062 18.113281 11.726562 L 16.714844 14.519531 C 16.644531 14.664062 16.496094 14.753906 16.335938 14.753906 L 13.773438 14.753906 C 13.496094 14.753906 13.253906 14.96875 13.246094 15.25 C 13.234375 15.539062 13.46875 15.773438 13.753906 15.773438 L 16.964844 15.773438 C 17.125 15.773438 17.273438 15.683594 17.34375 15.539062 L 18.113281 14.003906 C 18.269531 13.691406 18.714844 13.691406 18.871094 14.003906 L 21.269531 18.804688 C 21.425781 19.117188 21.875 19.117188 22.03125 18.804688 L 22.851562 17.164062 C 23.007812 16.851562 23.453125 16.851562 23.609375 17.164062 L 24.429688 18.804688 C 24.585938 19.117188 25.03125 19.117188 25.1875 18.804688 L 27.585938 14.003906 C 27.742188 13.691406 28.191406 13.691406 28.347656 14.003906 L 29.113281 15.539062 C 29.1875 15.683594 29.335938 15.773438 29.496094 15.773438 L 33.402344 15.773438 C 33.402344 15.773438 33.402344 15.773438 33.40625 15.773438 C 33.4375 15.773438 33.46875 15.769531 33.496094 15.765625 C 33.5 15.765625 33.5 15.765625 33.503906 15.765625 C 33.53125 15.757812 33.5625 15.75 33.589844 15.738281 C 33.59375 15.738281 33.59375 15.738281 33.597656 15.738281 C 33.625 15.726562 33.652344 15.710938 33.679688 15.695312 C 33.679688 15.691406 33.683594 15.691406 33.6875 15.691406 C 33.714844 15.671875 33.738281 15.652344 33.761719 15.628906 C 33.761719 15.628906 33.761719 15.628906 33.765625 15.628906 L 34.996094 14.394531 C 36.457031 12.9375 37.308594 10.960938 37.289062 8.898438 C 37.273438 6.835938 36.4375 4.902344 34.9375 3.472656 Z M 7.34375 28.371094 C 7.34375 26.871094 8.5625 25.652344 10.0625 25.652344 C 11.5625 25.652344 12.78125 26.871094 12.78125 28.371094 C 12.78125 29.871094 11.5625 31.089844 10.0625 31.089844 C 8.5625 31.089844 7.34375 29.871094 7.34375 28.371094 Z M 7.34375 28.371094 " fill-opacity="1" fill-rule="nonzero"/></g><g clip-path="url(#5e516b59cd)"><path fill="#ffffff" d="M 66.921875 7.40625 C 66.019531 7.40625 65.28125 6.667969 65.28125 5.765625 C 65.28125 4.863281 66.019531 4.121094 66.921875 4.121094 C 67.828125 4.121094 68.566406 4.863281 68.566406 5.765625 C 68.566406 6.667969 67.828125 7.40625 66.921875 7.40625 Z M 66.921875 7.40625 " fill-opacity="1" fill-rule="nonzero"/></g><g clip-path="url(#c38e7cc2e8)"><path fill="#008080" d="M 61.363281 2.386719 C 62.6875 2.832031 63.839844 3.550781 64.824219 4.542969 C 65.484375 5.214844 66.023438 5.976562 66.4375 6.824219 C 67.140625 6.1875 67.8125 5.53125 68.53125 4.929688 C 70.578125 3.234375 72.90625 2.363281 75.589844 2.613281 C 78.273438 2.859375 80.601562 4.246094 82.296875 6.449219 C 84.308594 9.070312 85.050781 12.085938 84.769531 15.355469 C 84.519531 18.367188 83.367188 21.0625 81.804688 23.605469 C 77.847656 30.050781 73.117188 33.828125 71.894531 34.6875 C 70.671875 35.546875 69.246094 36.417969 68.234375 37.007812 C 69.769531 36.367188 71.253906 35.625 72.683594 34.78125 C 73.707031 34.167969 74.695312 33.507812 75.648438 32.792969 C 77.933594 31.113281 81.085938 28.664062 83.828125 24.804688 C 85.710938 22.132812 87.109375 19.238281 87.5 15.96875 C 88.074219 11.050781 86.769531 6.730469 83.0625 3.328125 C 80.554688 1.011719 77.53125 0 74.121094 0.445312 C 73.085938 0.566406 72.097656 0.847656 71.152344 1.292969 C 68.613281 2.496094 67.011719 4.707031 66.578125 5.140625 C 66.019531 4.574219 65.398438 4.085938 64.71875 3.671875 C 63.679688 3.039062 62.5625 2.609375 61.363281 2.386719 Z M 61.363281 2.386719 " fill-opacity="1" fill-rule="nonzero"/></g></svg>