<svg xmlns="http://www.w3.org/2000/svg" xmlns:xlink="http://www.w3.org/1999/xlink" width="190" zoomAndPan="magnify" viewBox="0 0 142.5 67.499998" height="90" preserveAspectRatio="xMidYMid meet" version="1.0"><defs><g/><clipPath id="8ebcd9c43d"><path d="M 0.277344 0 L 141.726562 0 L 141.726562 67.003906 L 0.277344 67.003906 Z M 0.277344 0 " clip-rule="nonzero"/></clipPath><clipPath id="f1fde80907"><path d="M 48.871094 27.480469 L 129.605469 27.480469 L 129.605469 29.1875 L 48.871094 29.1875 Z M 48.871094 27.480469 " clip-rule="nonzero"/></clipPath><clipPath id="0f2839e2c1"><path d="M 49.726562 27.480469 L 128.746094 27.480469 C 129.21875 27.480469 129.601562 27.863281 129.601562 28.332031 C 129.601562 28.804688 129.21875 29.1875 128.746094 29.1875 L 49.726562 29.1875 C 49.253906 29.1875 48.871094 28.804688 48.871094 28.332031 C 48.871094 27.863281 49.253906 27.480469 49.726562 27.480469 Z M 49.726562 27.480469 " clip-rule="nonzero"/></clipPath><clipPath id="6794ac9a2b"><path d="M 5 5 L 55.726562 5 L 55.726562 63.550781 L 5 63.550781 Z M 5 5 " clip-rule="nonzero"/></clipPath><clipPath id="760467e7de"><path d="M 100.964844 10.367188 L 106.175781 10.367188 L 106.175781 15.578125 L 100.964844 15.578125 Z M 100.964844 10.367188 " clip-rule="nonzero"/></clipPath><clipPath id="324e86797d"><path d="M 94.660156 4 L 137 4 L 137 63.292969 L 94.660156 63.292969 Z M 94.660156 4 " clip-rule="nonzero"/></clipPath></defs><g clip-path="url(#8ebcd9c43d)"><path fill="#ffffff" d="M 0.277344 0 L 141.726562 0 L 141.726562 67.003906 L 0.277344 67.003906 Z M 0.277344 0 " fill-opacity="1" fill-rule="nonzero"/><path fill="#ffffff" d="M 0.277344 0 L 141.726562 0 L 141.726562 67.003906 L 0.277344 67.003906 Z M 0.277344 0 " fill-opacity="1" fill-rule="nonzero"/></g><g clip-path="url(#f1fde80907)"><g clip-path="url(#0f2839e2c1)"><path fill="#008080" d="M 48.871094 27.480469 L 129.601562 27.480469 L 129.601562 29.1875 L 48.871094 29.1875 Z M 48.871094 27.480469 " fill-opacity="1" fill-rule="nonzero"/></g></g><g fill="#008080" fill-opacity="1"><g transform="translate(56.511265, 25.202923)"><g><path d="M 5.859375 -9.421875 C 6.546875 -9.421875 7.191406 -9.316406 7.796875 -9.109375 C 8.398438 -8.898438 8.929688 -8.597656 9.390625 -8.203125 C 9.859375 -7.804688 10.222656 -7.316406 10.484375 -6.734375 C 10.742188 -6.160156 10.875 -5.492188 10.875 -4.734375 L 10.875 -4.375 C 10.875 -4.09375 10.738281 -3.953125 10.46875 -3.953125 L 3.828125 -3.953125 C 3.867188 -3.328125 4.0625 -2.820312 4.40625 -2.4375 C 4.75 -2.0625 5.210938 -1.875 5.796875 -1.875 C 6.242188 -1.875 6.613281 -1.96875 6.90625 -2.15625 C 7.207031 -2.34375 7.421875 -2.570312 7.546875 -2.84375 C 7.597656 -2.957031 7.65625 -3.039062 7.71875 -3.09375 C 7.789062 -3.15625 7.882812 -3.1875 8 -3.1875 L 10.28125 -3.1875 C 10.425781 -3.1875 10.535156 -3.144531 10.609375 -3.0625 C 10.679688 -2.976562 10.691406 -2.863281 10.640625 -2.71875 C 10.398438 -2.03125 10.046875 -1.460938 9.578125 -1.015625 C 9.109375 -0.566406 8.554688 -0.226562 7.921875 0 C 7.296875 0.21875 6.609375 0.328125 5.859375 0.328125 C 5.066406 0.328125 4.347656 0.21875 3.703125 0 C 3.054688 -0.226562 2.5 -0.550781 2.03125 -0.96875 C 1.5625 -1.394531 1.195312 -1.90625 0.9375 -2.5 C 0.6875 -3.101562 0.5625 -3.78125 0.5625 -4.53125 C 0.5625 -5.269531 0.691406 -5.941406 0.953125 -6.546875 C 1.210938 -7.148438 1.578125 -7.664062 2.046875 -8.09375 C 2.523438 -8.519531 3.085938 -8.847656 3.734375 -9.078125 C 4.378906 -9.304688 5.085938 -9.421875 5.859375 -9.421875 Z M 3.875 -5.625 L 7.609375 -5.625 C 7.578125 -6.125 7.394531 -6.53125 7.0625 -6.84375 C 6.738281 -7.15625 6.300781 -7.3125 5.75 -7.3125 C 5.175781 -7.3125 4.742188 -7.15625 4.453125 -6.84375 C 4.160156 -6.53125 3.96875 -6.125 3.875 -5.625 Z M 3.875 -5.625 "/></g></g></g><g fill="#008080" fill-opacity="1"><g transform="translate(67.99425, 25.202923)"><g><path d="M 8.25 -8.21875 L 8.25 -15.453125 C 9.25 -15.242188 10.007812 -14.804688 10.53125 -14.140625 C 11.0625 -13.472656 11.328125 -12.609375 11.328125 -11.546875 L 11.328125 0.203125 C 10.066406 0.203125 9.1875 -0.320312 8.6875 -1.375 C 8.289062 -0.832031 7.785156 -0.410156 7.171875 -0.109375 C 6.566406 0.179688 5.882812 0.328125 5.125 0.328125 C 4.457031 0.328125 3.847656 0.210938 3.296875 -0.015625 C 2.742188 -0.253906 2.265625 -0.585938 1.859375 -1.015625 C 1.453125 -1.453125 1.140625 -1.96875 0.921875 -2.5625 C 0.703125 -3.164062 0.59375 -3.828125 0.59375 -4.546875 C 0.59375 -5.265625 0.703125 -5.921875 0.921875 -6.515625 C 1.140625 -7.109375 1.453125 -7.617188 1.859375 -8.046875 C 2.265625 -8.484375 2.742188 -8.820312 3.296875 -9.0625 C 3.847656 -9.300781 4.457031 -9.421875 5.125 -9.421875 C 5.757812 -9.421875 6.335938 -9.316406 6.859375 -9.109375 C 7.390625 -8.898438 7.851562 -8.601562 8.25 -8.21875 Z M 6.078125 -2.140625 C 6.492188 -2.140625 6.863281 -2.238281 7.1875 -2.4375 C 7.519531 -2.644531 7.78125 -2.925781 7.96875 -3.28125 C 8.15625 -3.644531 8.25 -4.0625 8.25 -4.53125 C 8.25 -5 8.15625 -5.410156 7.96875 -5.765625 C 7.78125 -6.128906 7.519531 -6.410156 7.1875 -6.609375 C 6.863281 -6.816406 6.492188 -6.921875 6.078125 -6.921875 C 5.660156 -6.921875 5.285156 -6.816406 4.953125 -6.609375 C 4.628906 -6.410156 4.375 -6.128906 4.1875 -5.765625 C 4.007812 -5.410156 3.921875 -5 3.921875 -4.53125 C 3.921875 -4.0625 4.007812 -3.644531 4.1875 -3.28125 C 4.375 -2.925781 4.628906 -2.644531 4.953125 -2.4375 C 5.285156 -2.238281 5.660156 -2.140625 6.078125 -2.140625 Z M 6.078125 -2.140625 "/></g></g></g><g fill="#008080" fill-opacity="1"><g transform="translate(80.343099, 25.202923)"><g><path d="M 2.390625 -10.875 C 2.015625 -10.875 1.648438 -10.9375 1.296875 -11.0625 C 0.953125 -11.1875 0.671875 -11.375 0.453125 -11.625 C 0.234375 -11.875 0.125 -12.179688 0.125 -12.546875 C 0.125 -12.910156 0.234375 -13.21875 0.453125 -13.46875 C 0.671875 -13.71875 0.953125 -13.90625 1.296875 -14.03125 C 1.648438 -14.15625 2.015625 -14.21875 2.390625 -14.21875 C 2.765625 -14.21875 3.125 -14.15625 3.46875 -14.03125 C 3.8125 -13.90625 4.09375 -13.71875 4.3125 -13.46875 C 4.539062 -13.21875 4.65625 -12.910156 4.65625 -12.546875 C 4.65625 -12.179688 4.539062 -11.875 4.3125 -11.625 C 4.09375 -11.375 3.8125 -11.1875 3.46875 -11.0625 C 3.125 -10.9375 2.765625 -10.875 2.390625 -10.875 Z M 3.671875 0 L 1.40625 0 C 1.125 0 0.984375 -0.132812 0.984375 -0.40625 L 0.984375 -9.296875 C 1.992188 -9.085938 2.757812 -8.644531 3.28125 -7.96875 C 3.8125 -7.300781 4.078125 -6.4375 4.078125 -5.375 L 4.078125 -0.40625 C 4.078125 -0.132812 3.941406 0 3.671875 0 Z M 3.671875 0 "/></g></g></g><g fill="#7acb53" fill-opacity="1"><g transform="translate(85.29415, 25.202923)"><g><path d="M 6.25 -3.234375 L 0.890625 -3.234375 C 0.609375 -3.234375 0.46875 -3.367188 0.46875 -3.640625 L 0.46875 -5.484375 C 0.46875 -5.753906 0.609375 -5.890625 0.890625 -5.890625 L 6.25 -5.890625 C 6.519531 -5.890625 6.65625 -5.753906 6.65625 -5.484375 L 6.65625 -3.640625 C 6.65625 -3.367188 6.519531 -3.234375 6.25 -3.234375 Z M 6.25 -3.234375 "/></g></g></g><g fill="#7acb53" fill-opacity="1"><g transform="translate(92.427208, 25.202923)"><g><path d="M 1.625 -2.796875 L 8.609375 -2.796875 C 8.890625 -2.796875 9.03125 -2.660156 9.03125 -2.390625 L 9.03125 -0.40625 C 9.03125 -0.132812 8.890625 0 8.609375 0 L 1.53125 0 C 1.25 0 1.109375 -0.132812 1.109375 -0.40625 L 1.109375 -13.609375 C 1.109375 -13.878906 1.25 -14.015625 1.53125 -14.015625 L 3.796875 -14.015625 C 4.066406 -14.015625 4.203125 -13.878906 4.203125 -13.609375 L 4.203125 -7.515625 C 4.203125 -6.671875 4.09375 -5.941406 3.875 -5.328125 C 3.65625 -4.710938 3.347656 -4.195312 2.953125 -3.78125 C 2.566406 -3.363281 2.125 -3.035156 1.625 -2.796875 Z M 1.625 -2.796875 "/></g></g></g><g fill="#7acb53" fill-opacity="1"><g transform="translate(101.559994, 25.202923)"><g><path d="M 2.390625 -10.875 C 2.015625 -10.875 1.648438 -10.9375 1.296875 -11.0625 C 0.953125 -11.1875 0.671875 -11.375 0.453125 -11.625 C 0.234375 -11.875 0.125 -12.179688 0.125 -12.546875 C 0.125 -12.910156 0.234375 -13.21875 0.453125 -13.46875 C 0.671875 -13.71875 0.953125 -13.90625 1.296875 -14.03125 C 1.648438 -14.15625 2.015625 -14.21875 2.390625 -14.21875 C 2.765625 -14.21875 3.125 -14.15625 3.46875 -14.03125 C 3.8125 -13.90625 4.09375 -13.71875 4.3125 -13.46875 C 4.539062 -13.21875 4.65625 -12.910156 4.65625 -12.546875 C 4.65625 -12.179688 4.539062 -11.875 4.3125 -11.625 C 4.09375 -11.375 3.8125 -11.1875 3.46875 -11.0625 C 3.125 -10.9375 2.765625 -10.875 2.390625 -10.875 Z M 3.671875 0 L 1.40625 0 C 1.125 0 0.984375 -0.132812 0.984375 -0.40625 L 0.984375 -9.296875 C 1.992188 -9.085938 2.757812 -8.644531 3.28125 -7.96875 C 3.8125 -7.300781 4.078125 -6.4375 4.078125 -5.375 L 4.078125 -0.40625 C 4.078125 -0.132812 3.941406 0 3.671875 0 Z M 3.671875 0 "/></g></g></g><g fill="#7acb53" fill-opacity="1"><g transform="translate(106.507779, 25.202923)"><g><path d="M 6.84375 -9.421875 C 7.65625 -9.421875 8.3125 -9.242188 8.8125 -8.890625 C 9.3125 -8.546875 9.675781 -8.0625 9.90625 -7.4375 C 10.144531 -6.820312 10.265625 -6.101562 10.265625 -5.28125 L 10.265625 -0.40625 C 10.265625 -0.132812 10.125 0 9.84375 0 L 7.578125 0 C 7.304688 0 7.171875 -0.132812 7.171875 -0.40625 L 7.171875 -5.28125 C 7.171875 -5.8125 7.0625 -6.222656 6.84375 -6.515625 C 6.625 -6.804688 6.273438 -6.953125 5.796875 -6.953125 C 5.347656 -6.953125 4.960938 -6.789062 4.640625 -6.46875 C 4.328125 -6.144531 4.140625 -5.695312 4.078125 -5.125 L 4.078125 -0.40625 C 4.078125 -0.132812 3.941406 0 3.671875 0 L 1.40625 0 C 1.125 0 0.984375 -0.132812 0.984375 -0.40625 L 0.984375 -9.296875 C 1.597656 -9.171875 2.125 -8.957031 2.5625 -8.65625 C 3 -8.351562 3.34375 -7.972656 3.59375 -7.515625 C 4.0625 -8.203125 4.570312 -8.691406 5.125 -8.984375 C 5.675781 -9.273438 6.25 -9.421875 6.84375 -9.421875 Z M 6.84375 -9.421875 "/></g></g></g><g fill="#7acb53" fill-opacity="1"><g transform="translate(117.640297, 25.202923)"><g><path d="M 7.03125 -4.765625 L 10.96875 -0.515625 C 11.09375 -0.378906 11.128906 -0.257812 11.078125 -0.15625 C 11.023438 -0.0507812 10.910156 0 10.734375 0 L 7.578125 0 C 7.378906 0 7.21875 -0.0820312 7.09375 -0.25 L 4.078125 -4.046875 L 4.078125 -0.40625 C 4.078125 -0.132812 3.941406 0 3.671875 0 L 1.40625 0 C 1.125 0 0.984375 -0.132812 0.984375 -0.40625 L 0.984375 -15.453125 C 1.992188 -15.242188 2.757812 -14.804688 3.28125 -14.140625 C 3.8125 -13.472656 4.078125 -12.609375 4.078125 -11.546875 L 4.078125 -5.4375 L 6.984375 -8.859375 C 7.117188 -9.015625 7.289062 -9.09375 7.5 -9.09375 L 10.53125 -9.09375 C 10.707031 -9.09375 10.816406 -9.039062 10.859375 -8.9375 C 10.898438 -8.832031 10.859375 -8.710938 10.734375 -8.578125 Z M 7.03125 -4.765625 "/></g></g></g><g fill="#7acb53" fill-opacity="1"><g transform="translate(43.28652, 35.395289)"><g><path d="M 1.921875 0.046875 C 1.671875 0.046875 1.4375 0.00390625 1.21875 -0.078125 C 1.007812 -0.171875 0.820312 -0.296875 0.65625 -0.453125 C 0.488281 -0.609375 0.359375 -0.796875 0.265625 -1.015625 C 0.171875 -1.242188 0.125 -1.492188 0.125 -1.765625 C 0.125 -1.984375 0.15625 -2.1875 0.21875 -2.375 C 0.28125 -2.5625 0.367188 -2.726562 0.484375 -2.875 C 0.597656 -3.019531 0.726562 -3.144531 0.875 -3.25 C 1.019531 -3.351562 1.179688 -3.429688 1.359375 -3.484375 C 1.546875 -3.535156 1.738281 -3.5625 1.9375 -3.5625 C 2.125 -3.5625 2.300781 -3.535156 2.46875 -3.484375 C 2.644531 -3.429688 2.804688 -3.359375 2.953125 -3.265625 C 3.097656 -3.171875 3.21875 -3.050781 3.3125 -2.90625 C 3.414062 -2.769531 3.492188 -2.613281 3.546875 -2.4375 C 3.554688 -2.40625 3.550781 -2.378906 3.53125 -2.359375 C 3.519531 -2.335938 3.492188 -2.328125 3.453125 -2.328125 L 2.84375 -2.328125 C 2.789062 -2.328125 2.753906 -2.351562 2.734375 -2.40625 C 2.691406 -2.507812 2.628906 -2.59375 2.546875 -2.65625 C 2.460938 -2.726562 2.367188 -2.78125 2.265625 -2.8125 C 2.160156 -2.84375 2.046875 -2.859375 1.921875 -2.859375 C 1.785156 -2.859375 1.65625 -2.832031 1.53125 -2.78125 C 1.40625 -2.738281 1.296875 -2.671875 1.203125 -2.578125 C 1.109375 -2.484375 1.035156 -2.367188 0.984375 -2.234375 C 0.929688 -2.097656 0.90625 -1.941406 0.90625 -1.765625 C 0.90625 -1.585938 0.929688 -1.429688 0.984375 -1.296875 C 1.035156 -1.160156 1.109375 -1.046875 1.203125 -0.953125 C 1.296875 -0.859375 1.40625 -0.785156 1.53125 -0.734375 C 1.65625 -0.679688 1.785156 -0.65625 1.921875 -0.65625 C 2.046875 -0.65625 2.160156 -0.671875 2.265625 -0.703125 C 2.378906 -0.742188 2.472656 -0.796875 2.546875 -0.859375 C 2.628906 -0.929688 2.691406 -1.015625 2.734375 -1.109375 C 2.753906 -1.171875 2.789062 -1.203125 2.84375 -1.203125 L 3.453125 -1.203125 C 3.492188 -1.203125 3.519531 -1.191406 3.53125 -1.171875 C 3.550781 -1.148438 3.554688 -1.117188 3.546875 -1.078125 C 3.503906 -0.898438 3.429688 -0.742188 3.328125 -0.609375 C 3.222656 -0.472656 3.097656 -0.351562 2.953125 -0.25 C 2.804688 -0.15625 2.644531 -0.0820312 2.46875 -0.03125 C 2.300781 0.0195312 2.117188 0.046875 1.921875 0.046875 Z M 1.921875 0.046875 "/></g></g></g><g fill="#7acb53" fill-opacity="1"><g transform="translate(47.253419, 35.395289)"><g><path d="M 1.4375 0.078125 C 1.238281 0.078125 1.054688 0.0507812 0.890625 0 C 0.734375 -0.0625 0.597656 -0.144531 0.484375 -0.25 C 0.367188 -0.363281 0.28125 -0.492188 0.21875 -0.640625 C 0.164062 -0.796875 0.140625 -0.960938 0.140625 -1.140625 C 0.140625 -1.316406 0.171875 -1.476562 0.234375 -1.625 C 0.296875 -1.769531 0.378906 -1.894531 0.484375 -2 C 0.597656 -2.113281 0.734375 -2.203125 0.890625 -2.265625 C 1.054688 -2.328125 1.238281 -2.359375 1.4375 -2.359375 C 1.644531 -2.359375 1.828125 -2.328125 1.984375 -2.265625 C 2.140625 -2.203125 2.273438 -2.113281 2.390625 -2 C 2.503906 -1.894531 2.585938 -1.769531 2.640625 -1.625 C 2.703125 -1.476562 2.734375 -1.316406 2.734375 -1.140625 C 2.734375 -0.898438 2.679688 -0.6875 2.578125 -0.5 C 2.472656 -0.320312 2.320312 -0.179688 2.125 -0.078125 C 1.9375 0.0234375 1.707031 0.078125 1.4375 0.078125 Z M 1.4375 -0.515625 C 1.550781 -0.515625 1.644531 -0.539062 1.71875 -0.59375 C 1.800781 -0.65625 1.863281 -0.726562 1.90625 -0.8125 C 1.945312 -0.90625 1.96875 -1.007812 1.96875 -1.125 C 1.96875 -1.238281 1.945312 -1.34375 1.90625 -1.4375 C 1.863281 -1.539062 1.800781 -1.617188 1.71875 -1.671875 C 1.644531 -1.722656 1.550781 -1.75 1.4375 -1.75 C 1.332031 -1.75 1.238281 -1.71875 1.15625 -1.65625 C 1.070312 -1.601562 1.007812 -1.53125 0.96875 -1.4375 C 0.925781 -1.34375 0.90625 -1.238281 0.90625 -1.125 C 0.90625 -1.007812 0.925781 -0.90625 0.96875 -0.8125 C 1.007812 -0.726562 1.066406 -0.65625 1.140625 -0.59375 C 1.222656 -0.539062 1.320312 -0.515625 1.4375 -0.515625 Z M 1.4375 -0.515625 "/></g></g></g><g fill="#7acb53" fill-opacity="1"><g transform="translate(50.43213, 35.395289)"><g><path d="M 1.71875 -2.359375 C 1.914062 -2.359375 2.078125 -2.3125 2.203125 -2.21875 C 2.328125 -2.132812 2.414062 -2.015625 2.46875 -1.859375 C 2.53125 -1.703125 2.5625 -1.519531 2.5625 -1.3125 L 2.5625 -0.109375 C 2.5625 -0.0351562 2.53125 0 2.46875 0 L 1.890625 0 C 1.828125 0 1.796875 -0.0351562 1.796875 -0.109375 L 1.796875 -1.3125 C 1.796875 -1.445312 1.765625 -1.550781 1.703125 -1.625 C 1.648438 -1.695312 1.566406 -1.734375 1.453125 -1.734375 C 1.335938 -1.734375 1.238281 -1.691406 1.15625 -1.609375 C 1.082031 -1.535156 1.035156 -1.425781 1.015625 -1.28125 L 1.015625 -0.109375 C 1.015625 -0.0351562 0.984375 0 0.921875 0 L 0.34375 0 C 0.28125 0 0.25 -0.0351562 0.25 -0.109375 L 0.25 -2.328125 C 0.40625 -2.296875 0.535156 -2.238281 0.640625 -2.15625 C 0.742188 -2.082031 0.832031 -1.988281 0.90625 -1.875 C 1.019531 -2.050781 1.144531 -2.175781 1.28125 -2.25 C 1.414062 -2.320312 1.5625 -2.359375 1.71875 -2.359375 Z M 1.71875 -2.359375 "/></g></g></g><g fill="#7acb53" fill-opacity="1"><g transform="translate(53.507809, 35.395289)"><g><path d="M 1.71875 -2.359375 C 1.914062 -2.359375 2.078125 -2.3125 2.203125 -2.21875 C 2.328125 -2.132812 2.414062 -2.015625 2.46875 -1.859375 C 2.53125 -1.703125 2.5625 -1.519531 2.5625 -1.3125 L 2.5625 -0.109375 C 2.5625 -0.0351562 2.53125 0 2.46875 0 L 1.890625 0 C 1.828125 0 1.796875 -0.0351562 1.796875 -0.109375 L 1.796875 -1.3125 C 1.796875 -1.445312 1.765625 -1.550781 1.703125 -1.625 C 1.648438 -1.695312 1.566406 -1.734375 1.453125 -1.734375 C 1.335938 -1.734375 1.238281 -1.691406 1.15625 -1.609375 C 1.082031 -1.535156 1.035156 -1.425781 1.015625 -1.28125 L 1.015625 -0.109375 C 1.015625 -0.0351562 0.984375 0 0.921875 0 L 0.34375 0 C 0.28125 0 0.25 -0.0351562 0.25 -0.109375 L 0.25 -2.328125 C 0.40625 -2.296875 0.535156 -2.238281 0.640625 -2.15625 C 0.742188 -2.082031 0.832031 -1.988281 0.90625 -1.875 C 1.019531 -2.050781 1.144531 -2.175781 1.28125 -2.25 C 1.414062 -2.320312 1.5625 -2.359375 1.71875 -2.359375 Z M 1.71875 -2.359375 "/></g></g></g><g fill="#7acb53" fill-opacity="1"><g transform="translate(56.583487, 35.395289)"><g><path d="M 1.46875 -2.359375 C 1.632812 -2.359375 1.789062 -2.332031 1.9375 -2.28125 C 2.09375 -2.226562 2.226562 -2.148438 2.34375 -2.046875 C 2.46875 -1.953125 2.5625 -1.832031 2.625 -1.6875 C 2.6875 -1.539062 2.71875 -1.375 2.71875 -1.1875 L 2.71875 -1.09375 C 2.71875 -1.019531 2.6875 -0.984375 2.625 -0.984375 L 0.953125 -0.984375 C 0.960938 -0.828125 1.007812 -0.703125 1.09375 -0.609375 C 1.1875 -0.515625 1.304688 -0.46875 1.453125 -0.46875 C 1.566406 -0.46875 1.660156 -0.488281 1.734375 -0.53125 C 1.804688 -0.582031 1.859375 -0.644531 1.890625 -0.71875 C 1.898438 -0.738281 1.910156 -0.753906 1.921875 -0.765625 C 1.941406 -0.785156 1.96875 -0.796875 2 -0.796875 L 2.578125 -0.796875 C 2.609375 -0.796875 2.632812 -0.785156 2.65625 -0.765625 C 2.675781 -0.742188 2.675781 -0.71875 2.65625 -0.6875 C 2.59375 -0.507812 2.503906 -0.363281 2.390625 -0.25 C 2.273438 -0.132812 2.140625 -0.0507812 1.984375 0 C 1.828125 0.0507812 1.65625 0.078125 1.46875 0.078125 C 1.269531 0.078125 1.085938 0.0507812 0.921875 0 C 0.765625 -0.0507812 0.625 -0.128906 0.5 -0.234375 C 0.382812 -0.347656 0.296875 -0.476562 0.234375 -0.625 C 0.171875 -0.78125 0.140625 -0.953125 0.140625 -1.140625 C 0.140625 -1.316406 0.171875 -1.476562 0.234375 -1.625 C 0.304688 -1.78125 0.398438 -1.910156 0.515625 -2.015625 C 0.628906 -2.128906 0.765625 -2.210938 0.921875 -2.265625 C 1.085938 -2.328125 1.269531 -2.359375 1.46875 -2.359375 Z M 0.96875 -1.40625 L 1.90625 -1.40625 C 1.894531 -1.53125 1.847656 -1.628906 1.765625 -1.703125 C 1.679688 -1.785156 1.570312 -1.828125 1.4375 -1.828125 C 1.289062 -1.828125 1.179688 -1.785156 1.109375 -1.703125 C 1.035156 -1.628906 0.988281 -1.53125 0.96875 -1.40625 Z M 0.96875 -1.40625 "/></g></g></g><g fill="#7acb53" fill-opacity="1"><g transform="translate(59.746741, 35.395289)"><g><path d="M 1.359375 0.078125 C 1.171875 0.078125 1 0.046875 0.84375 -0.015625 C 0.695312 -0.078125 0.570312 -0.160156 0.46875 -0.265625 C 0.363281 -0.378906 0.28125 -0.507812 0.21875 -0.65625 C 0.164062 -0.8125 0.140625 -0.972656 0.140625 -1.140625 C 0.140625 -1.304688 0.164062 -1.460938 0.21875 -1.609375 C 0.28125 -1.753906 0.363281 -1.882812 0.46875 -2 C 0.570312 -2.113281 0.695312 -2.203125 0.84375 -2.265625 C 1 -2.328125 1.171875 -2.359375 1.359375 -2.359375 C 1.585938 -2.359375 1.785156 -2.316406 1.953125 -2.234375 C 2.128906 -2.160156 2.269531 -2.054688 2.375 -1.921875 C 2.488281 -1.785156 2.5625 -1.632812 2.59375 -1.46875 C 2.59375 -1.4375 2.582031 -1.410156 2.5625 -1.390625 C 2.550781 -1.367188 2.523438 -1.359375 2.484375 -1.359375 L 1.921875 -1.359375 C 1.867188 -1.359375 1.832031 -1.390625 1.8125 -1.453125 C 1.789062 -1.546875 1.75 -1.617188 1.6875 -1.671875 C 1.625 -1.734375 1.53125 -1.765625 1.40625 -1.765625 C 1.320312 -1.765625 1.25 -1.742188 1.1875 -1.703125 C 1.125 -1.671875 1.070312 -1.625 1.03125 -1.5625 C 0.988281 -1.5 0.957031 -1.429688 0.9375 -1.359375 C 0.925781 -1.285156 0.921875 -1.210938 0.921875 -1.140625 C 0.921875 -1.023438 0.9375 -0.921875 0.96875 -0.828125 C 1 -0.734375 1.050781 -0.65625 1.125 -0.59375 C 1.195312 -0.539062 1.289062 -0.515625 1.40625 -0.515625 C 1.53125 -0.515625 1.625 -0.539062 1.6875 -0.59375 C 1.75 -0.644531 1.789062 -0.71875 1.8125 -0.8125 C 1.832031 -0.875 1.867188 -0.90625 1.921875 -0.90625 L 2.484375 -0.90625 C 2.523438 -0.90625 2.550781 -0.898438 2.5625 -0.890625 C 2.582031 -0.878906 2.59375 -0.859375 2.59375 -0.828125 C 2.5625 -0.660156 2.492188 -0.503906 2.390625 -0.359375 C 2.285156 -0.222656 2.144531 -0.113281 1.96875 -0.03125 C 1.789062 0.0390625 1.585938 0.078125 1.359375 0.078125 Z M 1.359375 0.078125 "/></g></g></g><g fill="#7acb53" fill-opacity="1"><g transform="translate(62.776052, 35.395289)"><g><path d="M 1.265625 -2.28125 L 1.609375 -2.28125 C 1.671875 -2.28125 1.703125 -2.242188 1.703125 -2.171875 L 1.703125 -1.78125 C 1.703125 -1.707031 1.671875 -1.671875 1.609375 -1.671875 L 1.265625 -1.671875 L 1.265625 -0.109375 C 1.265625 -0.0351562 1.234375 0 1.171875 0 L 0.59375 0 C 0.53125 0 0.5 -0.0351562 0.5 -0.109375 L 0.5 -1.671875 L 0.171875 -1.671875 C 0.0976562 -1.671875 0.0625 -1.707031 0.0625 -1.78125 L 0.0625 -2.171875 C 0.0625 -2.242188 0.0976562 -2.28125 0.171875 -2.28125 L 0.5 -2.28125 C 0.5 -2.539062 0.5625 -2.753906 0.6875 -2.921875 C 0.820312 -3.085938 1.015625 -3.195312 1.265625 -3.25 Z M 1.265625 -2.28125 "/></g></g></g><g fill="#7acb53" fill-opacity="1"><g transform="translate(64.836868, 35.395289)"><g><path d="M 0.59375 -2.71875 C 0.5 -2.71875 0.410156 -2.734375 0.328125 -2.765625 C 0.242188 -2.796875 0.171875 -2.84375 0.109375 -2.90625 C 0.0546875 -2.96875 0.03125 -3.046875 0.03125 -3.140625 C 0.03125 -3.234375 0.0546875 -3.3125 0.109375 -3.375 C 0.171875 -3.4375 0.242188 -3.484375 0.328125 -3.515625 C 0.410156 -3.546875 0.5 -3.5625 0.59375 -3.5625 C 0.6875 -3.5625 0.773438 -3.546875 0.859375 -3.515625 C 0.953125 -3.484375 1.023438 -3.4375 1.078125 -3.375 C 1.140625 -3.3125 1.171875 -3.234375 1.171875 -3.140625 C 1.171875 -3.046875 1.140625 -2.96875 1.078125 -2.90625 C 1.023438 -2.84375 0.953125 -2.796875 0.859375 -2.765625 C 0.773438 -2.734375 0.6875 -2.71875 0.59375 -2.71875 Z M 0.921875 0 L 0.34375 0 C 0.28125 0 0.25 -0.0351562 0.25 -0.109375 L 0.25 -2.328125 C 0.5 -2.273438 0.6875 -2.164062 0.8125 -2 C 0.945312 -1.832031 1.015625 -1.613281 1.015625 -1.34375 L 1.015625 -0.109375 C 1.015625 -0.0351562 0.984375 0 0.921875 0 Z M 0.921875 0 "/></g></g></g><g fill="#7acb53" fill-opacity="1"><g transform="translate(66.367073, 35.395289)"><g><path d="M 1.71875 -2.359375 C 1.914062 -2.359375 2.078125 -2.3125 2.203125 -2.21875 C 2.328125 -2.132812 2.414062 -2.015625 2.46875 -1.859375 C 2.53125 -1.703125 2.5625 -1.519531 2.5625 -1.3125 L 2.5625 -0.109375 C 2.5625 -0.0351562 2.53125 0 2.46875 0 L 1.890625 0 C 1.828125 0 1.796875 -0.0351562 1.796875 -0.109375 L 1.796875 -1.3125 C 1.796875 -1.445312 1.765625 -1.550781 1.703125 -1.625 C 1.648438 -1.695312 1.566406 -1.734375 1.453125 -1.734375 C 1.335938 -1.734375 1.238281 -1.691406 1.15625 -1.609375 C 1.082031 -1.535156 1.035156 -1.425781 1.015625 -1.28125 L 1.015625 -0.109375 C 1.015625 -0.0351562 0.984375 0 0.921875 0 L 0.34375 0 C 0.28125 0 0.25 -0.0351562 0.25 -0.109375 L 0.25 -2.328125 C 0.40625 -2.296875 0.535156 -2.238281 0.640625 -2.15625 C 0.742188 -2.082031 0.832031 -1.988281 0.90625 -1.875 C 1.019531 -2.050781 1.144531 -2.175781 1.28125 -2.25 C 1.414062 -2.320312 1.5625 -2.359375 1.71875 -2.359375 Z M 1.71875 -2.359375 "/></g></g></g><g fill="#7acb53" fill-opacity="1"><g transform="translate(69.442753, 35.395289)"><g><path d="M 2.171875 -1.9375 C 2.296875 -2.195312 2.515625 -2.328125 2.828125 -2.328125 L 2.828125 0.203125 C 2.828125 0.453125 2.769531 0.65625 2.65625 0.8125 C 2.550781 0.976562 2.398438 1.097656 2.203125 1.171875 C 2.003906 1.242188 1.773438 1.28125 1.515625 1.28125 C 1.359375 1.28125 1.207031 1.265625 1.0625 1.234375 C 0.914062 1.203125 0.78125 1.148438 0.65625 1.078125 C 0.53125 1.015625 0.425781 0.925781 0.34375 0.8125 C 0.269531 0.695312 0.222656 0.554688 0.203125 0.390625 C 0.191406 0.359375 0.195312 0.332031 0.21875 0.3125 C 0.238281 0.289062 0.265625 0.28125 0.296875 0.28125 L 0.859375 0.28125 C 0.921875 0.28125 0.960938 0.316406 0.984375 0.390625 C 1.003906 0.492188 1.0625 0.570312 1.15625 0.625 C 1.25 0.6875 1.375 0.71875 1.53125 0.71875 C 1.695312 0.71875 1.828125 0.675781 1.921875 0.59375 C 2.015625 0.507812 2.0625 0.378906 2.0625 0.203125 L 2.0625 -0.21875 C 1.96875 -0.125 1.851562 -0.0507812 1.71875 0 C 1.582031 0.0507812 1.4375 0.078125 1.28125 0.078125 C 1.113281 0.078125 0.957031 0.0507812 0.8125 0 C 0.675781 -0.0625 0.554688 -0.144531 0.453125 -0.25 C 0.359375 -0.363281 0.285156 -0.492188 0.234375 -0.640625 C 0.179688 -0.796875 0.15625 -0.960938 0.15625 -1.140625 C 0.15625 -1.316406 0.179688 -1.476562 0.234375 -1.625 C 0.285156 -1.78125 0.359375 -1.910156 0.453125 -2.015625 C 0.554688 -2.117188 0.675781 -2.203125 0.8125 -2.265625 C 0.957031 -2.328125 1.113281 -2.359375 1.28125 -2.359375 C 1.46875 -2.359375 1.640625 -2.316406 1.796875 -2.234375 C 1.953125 -2.160156 2.078125 -2.0625 2.171875 -1.9375 Z M 1.515625 -0.53125 C 1.617188 -0.53125 1.710938 -0.554688 1.796875 -0.609375 C 1.878906 -0.660156 1.941406 -0.726562 1.984375 -0.8125 C 2.035156 -0.90625 2.0625 -1.015625 2.0625 -1.140625 C 2.0625 -1.253906 2.035156 -1.351562 1.984375 -1.4375 C 1.941406 -1.53125 1.878906 -1.601562 1.796875 -1.65625 C 1.710938 -1.707031 1.617188 -1.734375 1.515625 -1.734375 C 1.410156 -1.734375 1.316406 -1.707031 1.234375 -1.65625 C 1.160156 -1.601562 1.097656 -1.53125 1.046875 -1.4375 C 1.003906 -1.351562 0.984375 -1.253906 0.984375 -1.140625 C 0.984375 -1.015625 1.003906 -0.90625 1.046875 -0.8125 C 1.097656 -0.726562 1.160156 -0.660156 1.234375 -0.609375 C 1.316406 -0.554688 1.410156 -0.53125 1.515625 -0.53125 Z M 1.515625 -0.53125 "/></g></g></g><g fill="#7acb53" fill-opacity="1"><g transform="translate(72.822375, 35.395289)"><g/></g></g><g fill="#7acb53" fill-opacity="1"><g transform="translate(74.455608, 35.395289)"><g><path d="M 0.96875 -3.5 L 1.4375 -3.5 C 1.75 -3.5 1.992188 -3.453125 2.171875 -3.359375 C 2.359375 -3.265625 2.492188 -3.132812 2.578125 -2.96875 C 2.660156 -2.800781 2.703125 -2.601562 2.703125 -2.375 C 2.703125 -2.144531 2.660156 -1.945312 2.578125 -1.78125 C 2.492188 -1.613281 2.359375 -1.484375 2.171875 -1.390625 C 1.992188 -1.296875 1.75 -1.25 1.4375 -1.25 L 1.046875 -1.25 L 1.046875 -0.96875 C 1.046875 -0.757812 1.015625 -0.578125 0.953125 -0.421875 C 0.890625 -0.265625 0.796875 -0.140625 0.671875 -0.046875 C 0.554688 0.0351562 0.425781 0.0859375 0.28125 0.109375 L 0.28125 -3.40625 C 0.28125 -3.46875 0.3125 -3.5 0.375 -3.5 L 0.953125 -3.5 C 0.960938 -3.5 0.96875 -3.5 0.96875 -3.5 Z M 1.046875 -1.90625 L 1.359375 -1.90625 C 1.398438 -1.90625 1.441406 -1.90625 1.484375 -1.90625 C 1.535156 -1.914062 1.585938 -1.925781 1.640625 -1.9375 C 1.691406 -1.957031 1.738281 -1.984375 1.78125 -2.015625 C 1.820312 -2.046875 1.859375 -2.09375 1.890625 -2.15625 C 1.921875 -2.21875 1.9375 -2.289062 1.9375 -2.375 C 1.9375 -2.46875 1.921875 -2.539062 1.890625 -2.59375 C 1.859375 -2.65625 1.820312 -2.703125 1.78125 -2.734375 C 1.738281 -2.765625 1.691406 -2.785156 1.640625 -2.796875 C 1.585938 -2.816406 1.535156 -2.828125 1.484375 -2.828125 C 1.441406 -2.828125 1.398438 -2.828125 1.359375 -2.828125 L 1.046875 -2.828125 Z M 1.046875 -1.90625 "/></g></g></g><g fill="#7acb53" fill-opacity="1"><g transform="translate(77.438533, 35.395289)"><g><path d="M 2.1875 -1.90625 C 2.3125 -2.15625 2.523438 -2.296875 2.828125 -2.328125 L 2.828125 0.046875 C 2.523438 0.015625 2.3125 -0.125 2.1875 -0.375 C 2.09375 -0.226562 1.96875 -0.113281 1.8125 -0.03125 C 1.65625 0.0390625 1.476562 0.078125 1.28125 0.078125 C 1.113281 0.078125 0.957031 0.0507812 0.8125 0 C 0.675781 -0.0625 0.554688 -0.144531 0.453125 -0.25 C 0.359375 -0.363281 0.285156 -0.492188 0.234375 -0.640625 C 0.179688 -0.796875 0.15625 -0.960938 0.15625 -1.140625 C 0.15625 -1.316406 0.179688 -1.476562 0.234375 -1.625 C 0.285156 -1.78125 0.359375 -1.910156 0.453125 -2.015625 C 0.554688 -2.117188 0.675781 -2.203125 0.8125 -2.265625 C 0.957031 -2.328125 1.113281 -2.359375 1.28125 -2.359375 C 1.476562 -2.359375 1.65625 -2.316406 1.8125 -2.234375 C 1.96875 -2.148438 2.09375 -2.039062 2.1875 -1.90625 Z M 1.515625 -0.53125 C 1.617188 -0.53125 1.710938 -0.554688 1.796875 -0.609375 C 1.878906 -0.660156 1.941406 -0.726562 1.984375 -0.8125 C 2.035156 -0.90625 2.0625 -1.015625 2.0625 -1.140625 C 2.0625 -1.253906 2.035156 -1.351562 1.984375 -1.4375 C 1.941406 -1.53125 1.878906 -1.601562 1.796875 -1.65625 C 1.710938 -1.707031 1.617188 -1.734375 1.515625 -1.734375 C 1.410156 -1.734375 1.316406 -1.707031 1.234375 -1.65625 C 1.160156 -1.601562 1.097656 -1.53125 1.046875 -1.4375 C 1.003906 -1.351562 0.984375 -1.253906 0.984375 -1.140625 C 0.984375 -1.015625 1.003906 -0.90625 1.046875 -0.8125 C 1.097656 -0.726562 1.160156 -0.660156 1.234375 -0.609375 C 1.316406 -0.554688 1.410156 -0.53125 1.515625 -0.53125 Z M 1.515625 -0.53125 "/></g></g></g><g fill="#7acb53" fill-opacity="1"><g transform="translate(80.818156, 35.395289)"><g><path d="M 1.265625 -2.28125 L 1.609375 -2.28125 C 1.671875 -2.28125 1.703125 -2.242188 1.703125 -2.171875 L 1.703125 -1.78125 C 1.703125 -1.707031 1.671875 -1.671875 1.609375 -1.671875 L 1.265625 -1.671875 L 1.265625 -0.109375 C 1.265625 -0.0351562 1.234375 0 1.171875 0 L 0.59375 0 C 0.53125 0 0.5 -0.0351562 0.5 -0.109375 L 0.5 -1.671875 L 0.171875 -1.671875 C 0.0976562 -1.671875 0.0625 -1.707031 0.0625 -1.78125 L 0.0625 -2.171875 C 0.0625 -2.242188 0.0976562 -2.28125 0.171875 -2.28125 L 0.5 -2.28125 C 0.5 -2.539062 0.5625 -2.753906 0.6875 -2.921875 C 0.820312 -3.085938 1.015625 -3.195312 1.265625 -3.25 Z M 1.265625 -2.28125 "/></g></g></g><g fill="#7acb53" fill-opacity="1"><g transform="translate(82.878971, 35.395289)"><g><path d="M 0.59375 -2.71875 C 0.5 -2.71875 0.410156 -2.734375 0.328125 -2.765625 C 0.242188 -2.796875 0.171875 -2.84375 0.109375 -2.90625 C 0.0546875 -2.96875 0.03125 -3.046875 0.03125 -3.140625 C 0.03125 -3.234375 0.0546875 -3.3125 0.109375 -3.375 C 0.171875 -3.4375 0.242188 -3.484375 0.328125 -3.515625 C 0.410156 -3.546875 0.5 -3.5625 0.59375 -3.5625 C 0.6875 -3.5625 0.773438 -3.546875 0.859375 -3.515625 C 0.953125 -3.484375 1.023438 -3.4375 1.078125 -3.375 C 1.140625 -3.3125 1.171875 -3.234375 1.171875 -3.140625 C 1.171875 -3.046875 1.140625 -2.96875 1.078125 -2.90625 C 1.023438 -2.84375 0.953125 -2.796875 0.859375 -2.765625 C 0.773438 -2.734375 0.6875 -2.71875 0.59375 -2.71875 Z M 0.921875 0 L 0.34375 0 C 0.28125 0 0.25 -0.0351562 0.25 -0.109375 L 0.25 -2.328125 C 0.5 -2.273438 0.6875 -2.164062 0.8125 -2 C 0.945312 -1.832031 1.015625 -1.613281 1.015625 -1.34375 L 1.015625 -0.109375 C 1.015625 -0.0351562 0.984375 0 0.921875 0 Z M 0.921875 0 "/></g></g></g><g fill="#7acb53" fill-opacity="1"><g transform="translate(84.409174, 35.395289)"><g><path d="M 1.46875 -2.359375 C 1.632812 -2.359375 1.789062 -2.332031 1.9375 -2.28125 C 2.09375 -2.226562 2.226562 -2.148438 2.34375 -2.046875 C 2.46875 -1.953125 2.5625 -1.832031 2.625 -1.6875 C 2.6875 -1.539062 2.71875 -1.375 2.71875 -1.1875 L 2.71875 -1.09375 C 2.71875 -1.019531 2.6875 -0.984375 2.625 -0.984375 L 0.953125 -0.984375 C 0.960938 -0.828125 1.007812 -0.703125 1.09375 -0.609375 C 1.1875 -0.515625 1.304688 -0.46875 1.453125 -0.46875 C 1.566406 -0.46875 1.660156 -0.488281 1.734375 -0.53125 C 1.804688 -0.582031 1.859375 -0.644531 1.890625 -0.71875 C 1.898438 -0.738281 1.910156 -0.753906 1.921875 -0.765625 C 1.941406 -0.785156 1.96875 -0.796875 2 -0.796875 L 2.578125 -0.796875 C 2.609375 -0.796875 2.632812 -0.785156 2.65625 -0.765625 C 2.675781 -0.742188 2.675781 -0.71875 2.65625 -0.6875 C 2.59375 -0.507812 2.503906 -0.363281 2.390625 -0.25 C 2.273438 -0.132812 2.140625 -0.0507812 1.984375 0 C 1.828125 0.0507812 1.65625 0.078125 1.46875 0.078125 C 1.269531 0.078125 1.085938 0.0507812 0.921875 0 C 0.765625 -0.0507812 0.625 -0.128906 0.5 -0.234375 C 0.382812 -0.347656 0.296875 -0.476562 0.234375 -0.625 C 0.171875 -0.78125 0.140625 -0.953125 0.140625 -1.140625 C 0.140625 -1.316406 0.171875 -1.476562 0.234375 -1.625 C 0.304688 -1.78125 0.398438 -1.910156 0.515625 -2.015625 C 0.628906 -2.128906 0.765625 -2.210938 0.921875 -2.265625 C 1.085938 -2.328125 1.269531 -2.359375 1.46875 -2.359375 Z M 0.96875 -1.40625 L 1.90625 -1.40625 C 1.894531 -1.53125 1.847656 -1.628906 1.765625 -1.703125 C 1.679688 -1.785156 1.570312 -1.828125 1.4375 -1.828125 C 1.289062 -1.828125 1.179688 -1.785156 1.109375 -1.703125 C 1.035156 -1.628906 0.988281 -1.53125 0.96875 -1.40625 Z M 0.96875 -1.40625 "/></g></g></g><g fill="#7acb53" fill-opacity="1"><g transform="translate(87.572427, 35.395289)"><g><path d="M 1.71875 -2.359375 C 1.914062 -2.359375 2.078125 -2.3125 2.203125 -2.21875 C 2.328125 -2.132812 2.414062 -2.015625 2.46875 -1.859375 C 2.53125 -1.703125 2.5625 -1.519531 2.5625 -1.3125 L 2.5625 -0.109375 C 2.5625 -0.0351562 2.53125 0 2.46875 0 L 1.890625 0 C 1.828125 0 1.796875 -0.0351562 1.796875 -0.109375 L 1.796875 -1.3125 C 1.796875 -1.445312 1.765625 -1.550781 1.703125 -1.625 C 1.648438 -1.695312 1.566406 -1.734375 1.453125 -1.734375 C 1.335938 -1.734375 1.238281 -1.691406 1.15625 -1.609375 C 1.082031 -1.535156 1.035156 -1.425781 1.015625 -1.28125 L 1.015625 -0.109375 C 1.015625 -0.0351562 0.984375 0 0.921875 0 L 0.34375 0 C 0.28125 0 0.25 -0.0351562 0.25 -0.109375 L 0.25 -2.328125 C 0.40625 -2.296875 0.535156 -2.238281 0.640625 -2.15625 C 0.742188 -2.082031 0.832031 -1.988281 0.90625 -1.875 C 1.019531 -2.050781 1.144531 -2.175781 1.28125 -2.25 C 1.414062 -2.320312 1.5625 -2.359375 1.71875 -2.359375 Z M 1.71875 -2.359375 "/></g></g></g><g fill="#7acb53" fill-opacity="1"><g transform="translate(90.648104, 35.395289)"><g><path d="M 1.265625 -2.28125 L 1.609375 -2.28125 C 1.671875 -2.28125 1.703125 -2.242188 1.703125 -2.171875 L 1.703125 -1.78125 C 1.703125 -1.707031 1.671875 -1.671875 1.609375 -1.671875 L 1.265625 -1.671875 L 1.265625 -0.109375 C 1.265625 -0.0351562 1.234375 0 1.171875 0 L 0.59375 0 C 0.53125 0 0.5 -0.0351562 0.5 -0.109375 L 0.5 -1.671875 L 0.171875 -1.671875 C 0.0976562 -1.671875 0.0625 -1.707031 0.0625 -1.78125 L 0.0625 -2.171875 C 0.0625 -2.242188 0.0976562 -2.28125 0.171875 -2.28125 L 0.5 -2.28125 C 0.5 -2.539062 0.5625 -2.753906 0.6875 -2.921875 C 0.820312 -3.085938 1.015625 -3.195312 1.265625 -3.25 Z M 1.265625 -2.28125 "/></g></g></g><g fill="#7acb53" fill-opacity="1"><g transform="translate(92.708919, 35.395289)"><g><path d="M 1.375 0.078125 C 1.15625 0.078125 0.957031 0.0507812 0.78125 0 C 0.601562 -0.0625 0.457031 -0.148438 0.34375 -0.265625 C 0.238281 -0.390625 0.171875 -0.546875 0.140625 -0.734375 C 0.128906 -0.765625 0.132812 -0.789062 0.15625 -0.8125 C 0.175781 -0.832031 0.203125 -0.84375 0.234375 -0.84375 L 0.796875 -0.84375 C 0.828125 -0.84375 0.847656 -0.832031 0.859375 -0.8125 C 0.878906 -0.800781 0.894531 -0.78125 0.90625 -0.75 C 0.914062 -0.6875 0.941406 -0.632812 0.984375 -0.59375 C 1.023438 -0.5625 1.066406 -0.535156 1.109375 -0.515625 C 1.160156 -0.492188 1.207031 -0.476562 1.25 -0.46875 C 1.300781 -0.457031 1.347656 -0.453125 1.390625 -0.453125 C 1.503906 -0.453125 1.59375 -0.472656 1.65625 -0.515625 C 1.71875 -0.554688 1.75 -0.609375 1.75 -0.671875 C 1.75 -0.722656 1.722656 -0.765625 1.671875 -0.796875 C 1.628906 -0.828125 1.570312 -0.851562 1.5 -0.875 C 1.425781 -0.894531 1.34375 -0.910156 1.25 -0.921875 C 1.164062 -0.929688 1.078125 -0.941406 0.984375 -0.953125 C 0.890625 -0.972656 0.796875 -1 0.703125 -1.03125 C 0.609375 -1.0625 0.523438 -1.097656 0.453125 -1.140625 C 0.378906 -1.191406 0.320312 -1.253906 0.28125 -1.328125 C 0.238281 -1.410156 0.21875 -1.507812 0.21875 -1.625 C 0.21875 -1.769531 0.257812 -1.894531 0.34375 -2 C 0.425781 -2.113281 0.546875 -2.203125 0.703125 -2.265625 C 0.867188 -2.328125 1.066406 -2.359375 1.296875 -2.359375 C 1.597656 -2.359375 1.84375 -2.300781 2.03125 -2.1875 C 2.226562 -2.082031 2.351562 -1.921875 2.40625 -1.703125 C 2.414062 -1.660156 2.410156 -1.628906 2.390625 -1.609375 C 2.378906 -1.585938 2.351562 -1.578125 2.3125 -1.578125 L 1.765625 -1.578125 C 1.710938 -1.578125 1.675781 -1.609375 1.65625 -1.671875 C 1.625 -1.734375 1.578125 -1.78125 1.515625 -1.8125 C 1.453125 -1.851562 1.367188 -1.875 1.265625 -1.875 C 1.171875 -1.875 1.101562 -1.859375 1.0625 -1.828125 C 1.019531 -1.796875 1 -1.765625 1 -1.734375 C 1 -1.679688 1.019531 -1.640625 1.0625 -1.609375 C 1.101562 -1.578125 1.160156 -1.550781 1.234375 -1.53125 C 1.304688 -1.519531 1.382812 -1.503906 1.46875 -1.484375 C 1.5625 -1.472656 1.65625 -1.457031 1.75 -1.4375 C 1.851562 -1.414062 1.945312 -1.390625 2.03125 -1.359375 C 2.125 -1.328125 2.207031 -1.285156 2.28125 -1.234375 C 2.351562 -1.179688 2.410156 -1.113281 2.453125 -1.03125 C 2.492188 -0.957031 2.515625 -0.863281 2.515625 -0.75 C 2.515625 -0.570312 2.46875 -0.421875 2.375 -0.296875 C 2.289062 -0.171875 2.160156 -0.078125 1.984375 -0.015625 C 1.816406 0.046875 1.613281 0.078125 1.375 0.078125 Z M 1.375 0.078125 "/></g></g></g><g fill="#7acb53" fill-opacity="1"><g transform="translate(95.666108, 35.395289)"><g/></g></g><g fill="#7acb53" fill-opacity="1"><g transform="translate(97.299338, 35.395289)"><g><path d="M 2.015625 -3.421875 L 3.265625 -0.125 C 3.265625 -0.113281 3.265625 -0.101562 3.265625 -0.09375 C 3.265625 -0.0820312 3.265625 -0.078125 3.265625 -0.078125 C 3.265625 -0.0546875 3.253906 -0.0351562 3.234375 -0.015625 C 3.222656 -0.00390625 3.203125 0 3.171875 0 L 2.5625 0 C 2.53125 0 2.503906 -0.00390625 2.484375 -0.015625 C 2.472656 -0.0234375 2.460938 -0.046875 2.453125 -0.078125 L 2.25 -0.703125 L 2.0625 -0.703125 C 1.851562 -0.703125 1.679688 -0.742188 1.546875 -0.828125 C 1.410156 -0.910156 1.3125 -1.015625 1.25 -1.140625 C 1.164062 -0.878906 1.0625 -0.660156 0.9375 -0.484375 C 0.8125 -0.316406 0.664062 -0.1875 0.5 -0.09375 C 0.34375 0 0.164062 0.0664062 -0.03125 0.109375 L 1.296875 -3.421875 C 1.316406 -3.472656 1.359375 -3.5 1.421875 -3.5 L 1.890625 -3.5 C 1.953125 -3.5 1.992188 -3.472656 2.015625 -3.421875 Z M 1.65625 -2.484375 L 1.3125 -1.34375 L 2.03125 -1.34375 Z M 1.65625 -2.484375 "/></g></g></g><g fill="#7acb53" fill-opacity="1"><g transform="translate(100.879869, 35.395289)"><g><path d="M 1.71875 -2.359375 C 1.914062 -2.359375 2.078125 -2.3125 2.203125 -2.21875 C 2.328125 -2.132812 2.414062 -2.015625 2.46875 -1.859375 C 2.53125 -1.703125 2.5625 -1.519531 2.5625 -1.3125 L 2.5625 -0.109375 C 2.5625 -0.0351562 2.53125 0 2.46875 0 L 1.890625 0 C 1.828125 0 1.796875 -0.0351562 1.796875 -0.109375 L 1.796875 -1.3125 C 1.796875 -1.445312 1.765625 -1.550781 1.703125 -1.625 C 1.648438 -1.695312 1.566406 -1.734375 1.453125 -1.734375 C 1.335938 -1.734375 1.238281 -1.691406 1.15625 -1.609375 C 1.082031 -1.535156 1.035156 -1.425781 1.015625 -1.28125 L 1.015625 -0.109375 C 1.015625 -0.0351562 0.984375 0 0.921875 0 L 0.34375 0 C 0.28125 0 0.25 -0.0351562 0.25 -0.109375 L 0.25 -2.328125 C 0.40625 -2.296875 0.535156 -2.238281 0.640625 -2.15625 C 0.742188 -2.082031 0.832031 -1.988281 0.90625 -1.875 C 1.019531 -2.050781 1.144531 -2.175781 1.28125 -2.25 C 1.414062 -2.320312 1.5625 -2.359375 1.71875 -2.359375 Z M 1.71875 -2.359375 "/></g></g></g><g fill="#7acb53" fill-opacity="1"><g transform="translate(103.955546, 35.395289)"><g><path d="M 2.0625 -2.0625 L 2.0625 -3.859375 C 2.3125 -3.816406 2.5 -3.707031 2.625 -3.53125 C 2.757812 -3.363281 2.828125 -3.148438 2.828125 -2.890625 L 2.828125 0.046875 C 2.515625 0.046875 2.296875 -0.0820312 2.171875 -0.34375 C 2.078125 -0.207031 1.953125 -0.101562 1.796875 -0.03125 C 1.640625 0.0390625 1.46875 0.078125 1.28125 0.078125 C 1.113281 0.078125 0.957031 0.0507812 0.8125 0 C 0.675781 -0.0625 0.554688 -0.144531 0.453125 -0.25 C 0.359375 -0.363281 0.285156 -0.492188 0.234375 -0.640625 C 0.179688 -0.796875 0.15625 -0.960938 0.15625 -1.140625 C 0.15625 -1.316406 0.179688 -1.476562 0.234375 -1.625 C 0.285156 -1.78125 0.359375 -1.910156 0.453125 -2.015625 C 0.554688 -2.117188 0.675781 -2.203125 0.8125 -2.265625 C 0.957031 -2.328125 1.113281 -2.359375 1.28125 -2.359375 C 1.4375 -2.359375 1.582031 -2.332031 1.71875 -2.28125 C 1.851562 -2.226562 1.96875 -2.15625 2.0625 -2.0625 Z M 1.515625 -0.53125 C 1.617188 -0.53125 1.710938 -0.554688 1.796875 -0.609375 C 1.878906 -0.660156 1.941406 -0.726562 1.984375 -0.8125 C 2.035156 -0.90625 2.0625 -1.015625 2.0625 -1.140625 C 2.0625 -1.253906 2.035156 -1.351562 1.984375 -1.4375 C 1.941406 -1.53125 1.878906 -1.601562 1.796875 -1.65625 C 1.710938 -1.707031 1.617188 -1.734375 1.515625 -1.734375 C 1.410156 -1.734375 1.316406 -1.707031 1.234375 -1.65625 C 1.160156 -1.601562 1.097656 -1.53125 1.046875 -1.4375 C 1.003906 -1.351562 0.984375 -1.253906 0.984375 -1.140625 C 0.984375 -1.015625 1.003906 -0.90625 1.046875 -0.8125 C 1.097656 -0.726562 1.160156 -0.660156 1.234375 -0.609375 C 1.316406 -0.554688 1.410156 -0.53125 1.515625 -0.53125 Z M 1.515625 -0.53125 "/></g></g></g><g fill="#7acb53" fill-opacity="1"><g transform="translate(107.335166, 35.395289)"><g/></g></g><g fill="#7acb53" fill-opacity="1"><g transform="translate(108.968397, 35.395289)"><g><path d="M 1.21875 0 L 0.375 0 C 0.3125 0 0.28125 -0.0351562 0.28125 -0.109375 L 0.28125 -3.40625 C 0.28125 -3.46875 0.3125 -3.5 0.375 -3.5 L 1.21875 -3.5 C 1.539062 -3.5 1.820312 -3.453125 2.0625 -3.359375 C 2.300781 -3.273438 2.5 -3.15625 2.65625 -3 C 2.8125 -2.84375 2.925781 -2.65625 3 -2.4375 C 3.070312 -2.226562 3.109375 -2 3.109375 -1.75 C 3.109375 -1.5 3.070312 -1.269531 3 -1.0625 C 2.925781 -0.851562 2.8125 -0.664062 2.65625 -0.5 C 2.5 -0.34375 2.300781 -0.21875 2.0625 -0.125 C 1.820312 -0.0390625 1.539062 0 1.21875 0 Z M 1.046875 -2.8125 L 1.046875 -0.703125 L 1.28125 -0.703125 C 1.46875 -0.703125 1.628906 -0.726562 1.765625 -0.78125 C 1.898438 -0.832031 2.007812 -0.90625 2.09375 -1 C 2.175781 -1.101562 2.238281 -1.21875 2.28125 -1.34375 C 2.320312 -1.46875 2.34375 -1.601562 2.34375 -1.75 C 2.34375 -1.894531 2.320312 -2.03125 2.28125 -2.15625 C 2.238281 -2.289062 2.175781 -2.40625 2.09375 -2.5 C 2.007812 -2.59375 1.898438 -2.664062 1.765625 -2.71875 C 1.640625 -2.78125 1.476562 -2.8125 1.28125 -2.8125 Z M 1.046875 -2.8125 "/></g></g></g><g fill="#7acb53" fill-opacity="1"><g transform="translate(112.512867, 35.395289)"><g><path d="M 1.4375 0.078125 C 1.238281 0.078125 1.054688 0.0507812 0.890625 0 C 0.734375 -0.0625 0.597656 -0.144531 0.484375 -0.25 C 0.367188 -0.363281 0.28125 -0.492188 0.21875 -0.640625 C 0.164062 -0.796875 0.140625 -0.960938 0.140625 -1.140625 C 0.140625 -1.316406 0.171875 -1.476562 0.234375 -1.625 C 0.296875 -1.769531 0.378906 -1.894531 0.484375 -2 C 0.597656 -2.113281 0.734375 -2.203125 0.890625 -2.265625 C 1.054688 -2.328125 1.238281 -2.359375 1.4375 -2.359375 C 1.644531 -2.359375 1.828125 -2.328125 1.984375 -2.265625 C 2.140625 -2.203125 2.273438 -2.113281 2.390625 -2 C 2.503906 -1.894531 2.585938 -1.769531 2.640625 -1.625 C 2.703125 -1.476562 2.734375 -1.316406 2.734375 -1.140625 C 2.734375 -0.898438 2.679688 -0.6875 2.578125 -0.5 C 2.472656 -0.320312 2.320312 -0.179688 2.125 -0.078125 C 1.9375 0.0234375 1.707031 0.078125 1.4375 0.078125 Z M 1.4375 -0.515625 C 1.550781 -0.515625 1.644531 -0.539062 1.71875 -0.59375 C 1.800781 -0.65625 1.863281 -0.726562 1.90625 -0.8125 C 1.945312 -0.90625 1.96875 -1.007812 1.96875 -1.125 C 1.96875 -1.238281 1.945312 -1.34375 1.90625 -1.4375 C 1.863281 -1.539062 1.800781 -1.617188 1.71875 -1.671875 C 1.644531 -1.722656 1.550781 -1.75 1.4375 -1.75 C 1.332031 -1.75 1.238281 -1.71875 1.15625 -1.65625 C 1.070312 -1.601562 1.007812 -1.53125 0.96875 -1.4375 C 0.925781 -1.34375 0.90625 -1.238281 0.90625 -1.125 C 0.90625 -1.007812 0.925781 -0.90625 0.96875 -0.8125 C 1.007812 -0.726562 1.066406 -0.65625 1.140625 -0.59375 C 1.222656 -0.539062 1.320312 -0.515625 1.4375 -0.515625 Z M 1.4375 -0.515625 "/></g></g></g><g fill="#7acb53" fill-opacity="1"><g transform="translate(115.691577, 35.395289)"><g><path d="M 1.359375 0.078125 C 1.171875 0.078125 1 0.046875 0.84375 -0.015625 C 0.695312 -0.078125 0.570312 -0.160156 0.46875 -0.265625 C 0.363281 -0.378906 0.28125 -0.507812 0.21875 -0.65625 C 0.164062 -0.8125 0.140625 -0.972656 0.140625 -1.140625 C 0.140625 -1.304688 0.164062 -1.460938 0.21875 -1.609375 C 0.28125 -1.753906 0.363281 -1.882812 0.46875 -2 C 0.570312 -2.113281 0.695312 -2.203125 0.84375 -2.265625 C 1 -2.328125 1.171875 -2.359375 1.359375 -2.359375 C 1.585938 -2.359375 1.785156 -2.316406 1.953125 -2.234375 C 2.128906 -2.160156 2.269531 -2.054688 2.375 -1.921875 C 2.488281 -1.785156 2.5625 -1.632812 2.59375 -1.46875 C 2.59375 -1.4375 2.582031 -1.410156 2.5625 -1.390625 C 2.550781 -1.367188 2.523438 -1.359375 2.484375 -1.359375 L 1.921875 -1.359375 C 1.867188 -1.359375 1.832031 -1.390625 1.8125 -1.453125 C 1.789062 -1.546875 1.75 -1.617188 1.6875 -1.671875 C 1.625 -1.734375 1.53125 -1.765625 1.40625 -1.765625 C 1.320312 -1.765625 1.25 -1.742188 1.1875 -1.703125 C 1.125 -1.671875 1.070312 -1.625 1.03125 -1.5625 C 0.988281 -1.5 0.957031 -1.429688 0.9375 -1.359375 C 0.925781 -1.285156 0.921875 -1.210938 0.921875 -1.140625 C 0.921875 -1.023438 0.9375 -0.921875 0.96875 -0.828125 C 1 -0.734375 1.050781 -0.65625 1.125 -0.59375 C 1.195312 -0.539062 1.289062 -0.515625 1.40625 -0.515625 C 1.53125 -0.515625 1.625 -0.539062 1.6875 -0.59375 C 1.75 -0.644531 1.789062 -0.71875 1.8125 -0.8125 C 1.832031 -0.875 1.867188 -0.90625 1.921875 -0.90625 L 2.484375 -0.90625 C 2.523438 -0.90625 2.550781 -0.898438 2.5625 -0.890625 C 2.582031 -0.878906 2.59375 -0.859375 2.59375 -0.828125 C 2.5625 -0.660156 2.492188 -0.503906 2.390625 -0.359375 C 2.285156 -0.222656 2.144531 -0.113281 1.96875 -0.03125 C 1.789062 0.0390625 1.585938 0.078125 1.359375 0.078125 Z M 1.359375 0.078125 "/></g></g></g><g fill="#7acb53" fill-opacity="1"><g transform="translate(118.720886, 35.395289)"><g><path d="M 1.265625 -2.28125 L 1.609375 -2.28125 C 1.671875 -2.28125 1.703125 -2.242188 1.703125 -2.171875 L 1.703125 -1.78125 C 1.703125 -1.707031 1.671875 -1.671875 1.609375 -1.671875 L 1.265625 -1.671875 L 1.265625 -0.109375 C 1.265625 -0.0351562 1.234375 0 1.171875 0 L 0.59375 0 C 0.53125 0 0.5 -0.0351562 0.5 -0.109375 L 0.5 -1.671875 L 0.171875 -1.671875 C 0.0976562 -1.671875 0.0625 -1.707031 0.0625 -1.78125 L 0.0625 -2.171875 C 0.0625 -2.242188 0.0976562 -2.28125 0.171875 -2.28125 L 0.5 -2.28125 C 0.5 -2.539062 0.5625 -2.753906 0.6875 -2.921875 C 0.820312 -3.085938 1.015625 -3.195312 1.265625 -3.25 Z M 1.265625 -2.28125 "/></g></g></g><g fill="#7acb53" fill-opacity="1"><g transform="translate(120.781701, 35.395289)"><g><path d="M 1.4375 0.078125 C 1.238281 0.078125 1.054688 0.0507812 0.890625 0 C 0.734375 -0.0625 0.597656 -0.144531 0.484375 -0.25 C 0.367188 -0.363281 0.28125 -0.492188 0.21875 -0.640625 C 0.164062 -0.796875 0.140625 -0.960938 0.140625 -1.140625 C 0.140625 -1.316406 0.171875 -1.476562 0.234375 -1.625 C 0.296875 -1.769531 0.378906 -1.894531 0.484375 -2 C 0.597656 -2.113281 0.734375 -2.203125 0.890625 -2.265625 C 1.054688 -2.328125 1.238281 -2.359375 1.4375 -2.359375 C 1.644531 -2.359375 1.828125 -2.328125 1.984375 -2.265625 C 2.140625 -2.203125 2.273438 -2.113281 2.390625 -2 C 2.503906 -1.894531 2.585938 -1.769531 2.640625 -1.625 C 2.703125 -1.476562 2.734375 -1.316406 2.734375 -1.140625 C 2.734375 -0.898438 2.679688 -0.6875 2.578125 -0.5 C 2.472656 -0.320312 2.320312 -0.179688 2.125 -0.078125 C 1.9375 0.0234375 1.707031 0.078125 1.4375 0.078125 Z M 1.4375 -0.515625 C 1.550781 -0.515625 1.644531 -0.539062 1.71875 -0.59375 C 1.800781 -0.65625 1.863281 -0.726562 1.90625 -0.8125 C 1.945312 -0.90625 1.96875 -1.007812 1.96875 -1.125 C 1.96875 -1.238281 1.945312 -1.34375 1.90625 -1.4375 C 1.863281 -1.539062 1.800781 -1.617188 1.71875 -1.671875 C 1.644531 -1.722656 1.550781 -1.75 1.4375 -1.75 C 1.332031 -1.75 1.238281 -1.71875 1.15625 -1.65625 C 1.070312 -1.601562 1.007812 -1.53125 0.96875 -1.4375 C 0.925781 -1.34375 0.90625 -1.238281 0.90625 -1.125 C 0.90625 -1.007812 0.925781 -0.90625 0.96875 -0.8125 C 1.007812 -0.726562 1.066406 -0.65625 1.140625 -0.59375 C 1.222656 -0.539062 1.320312 -0.515625 1.4375 -0.515625 Z M 1.4375 -0.515625 "/></g></g></g><g fill="#7acb53" fill-opacity="1"><g transform="translate(123.960415, 35.395289)"><g><path d="M 1.765625 -2.3125 C 1.796875 -2.300781 1.816406 -2.285156 1.828125 -2.265625 C 1.835938 -2.242188 1.84375 -2.21875 1.84375 -2.1875 L 1.84375 -1.671875 C 1.84375 -1.640625 1.832031 -1.613281 1.8125 -1.59375 C 1.789062 -1.582031 1.765625 -1.582031 1.734375 -1.59375 C 1.640625 -1.613281 1.554688 -1.625 1.484375 -1.625 C 1.203125 -1.625 1.046875 -1.460938 1.015625 -1.140625 L 1.015625 -0.109375 C 1.015625 -0.0351562 0.984375 0 0.921875 0 L 0.34375 0 C 0.28125 0 0.25 -0.0351562 0.25 -0.109375 L 0.25 -2.328125 C 0.5625 -2.265625 0.78125 -2.113281 0.90625 -1.875 C 0.988281 -2.039062 1.085938 -2.15625 1.203125 -2.21875 C 1.328125 -2.289062 1.457031 -2.328125 1.59375 -2.328125 C 1.625 -2.328125 1.648438 -2.320312 1.671875 -2.3125 C 1.703125 -2.3125 1.734375 -2.3125 1.765625 -2.3125 Z M 1.765625 -2.3125 "/></g></g></g><g fill="#7acb53" fill-opacity="1"><g transform="translate(126.186086, 35.395289)"><g><path d="M 1.375 0.078125 C 1.15625 0.078125 0.957031 0.0507812 0.78125 0 C 0.601562 -0.0625 0.457031 -0.148438 0.34375 -0.265625 C 0.238281 -0.390625 0.171875 -0.546875 0.140625 -0.734375 C 0.128906 -0.765625 0.132812 -0.789062 0.15625 -0.8125 C 0.175781 -0.832031 0.203125 -0.84375 0.234375 -0.84375 L 0.796875 -0.84375 C 0.828125 -0.84375 0.847656 -0.832031 0.859375 -0.8125 C 0.878906 -0.800781 0.894531 -0.78125 0.90625 -0.75 C 0.914062 -0.6875 0.941406 -0.632812 0.984375 -0.59375 C 1.023438 -0.5625 1.066406 -0.535156 1.109375 -0.515625 C 1.160156 -0.492188 1.207031 -0.476562 1.25 -0.46875 C 1.300781 -0.457031 1.347656 -0.453125 1.390625 -0.453125 C 1.503906 -0.453125 1.59375 -0.472656 1.65625 -0.515625 C 1.71875 -0.554688 1.75 -0.609375 1.75 -0.671875 C 1.75 -0.722656 1.722656 -0.765625 1.671875 -0.796875 C 1.628906 -0.828125 1.570312 -0.851562 1.5 -0.875 C 1.425781 -0.894531 1.34375 -0.910156 1.25 -0.921875 C 1.164062 -0.929688 1.078125 -0.941406 0.984375 -0.953125 C 0.890625 -0.972656 0.796875 -1 0.703125 -1.03125 C 0.609375 -1.0625 0.523438 -1.097656 0.453125 -1.140625 C 0.378906 -1.191406 0.320312 -1.253906 0.28125 -1.328125 C 0.238281 -1.410156 0.21875 -1.507812 0.21875 -1.625 C 0.21875 -1.769531 0.257812 -1.894531 0.34375 -2 C 0.425781 -2.113281 0.546875 -2.203125 0.703125 -2.265625 C 0.867188 -2.328125 1.066406 -2.359375 1.296875 -2.359375 C 1.597656 -2.359375 1.84375 -2.300781 2.03125 -2.1875 C 2.226562 -2.082031 2.351562 -1.921875 2.40625 -1.703125 C 2.414062 -1.660156 2.410156 -1.628906 2.390625 -1.609375 C 2.378906 -1.585938 2.351562 -1.578125 2.3125 -1.578125 L 1.765625 -1.578125 C 1.710938 -1.578125 1.675781 -1.609375 1.65625 -1.671875 C 1.625 -1.734375 1.578125 -1.78125 1.515625 -1.8125 C 1.453125 -1.851562 1.367188 -1.875 1.265625 -1.875 C 1.171875 -1.875 1.101562 -1.859375 1.0625 -1.828125 C 1.019531 -1.796875 1 -1.765625 1 -1.734375 C 1 -1.679688 1.019531 -1.640625 1.0625 -1.609375 C 1.101562 -1.578125 1.160156 -1.550781 1.234375 -1.53125 C 1.304688 -1.519531 1.382812 -1.503906 1.46875 -1.484375 C 1.5625 -1.472656 1.65625 -1.457031 1.75 -1.4375 C 1.851562 -1.414062 1.945312 -1.390625 2.03125 -1.359375 C 2.125 -1.328125 2.207031 -1.285156 2.28125 -1.234375 C 2.351562 -1.179688 2.410156 -1.113281 2.453125 -1.03125 C 2.492188 -0.957031 2.515625 -0.863281 2.515625 -0.75 C 2.515625 -0.570312 2.46875 -0.421875 2.375 -0.296875 C 2.289062 -0.171875 2.160156 -0.078125 1.984375 -0.015625 C 1.816406 0.046875 1.613281 0.078125 1.375 0.078125 Z M 1.375 0.078125 "/></g></g></g><g clip-path="url(#6794ac9a2b)"><path fill="#008080" d="M 52.140625 9.320312 C 49.871094 7.15625 46.824219 5.949219 43.6875 5.960938 C 40.449219 5.972656 37.40625 7.238281 35.117188 9.53125 L 30.746094 13.898438 L 26.484375 9.640625 C 21.742188 4.894531 14.011719 4.746094 9.222656 9.445312 C 4.382812 14.191406 4.351562 21.988281 9.136719 26.769531 L 32.273438 49.90625 C 34.914062 52.546875 35.035156 56.847656 32.445312 59.539062 C 29.796875 62.289062 25.398438 62.324219 22.710938 59.632812 L 16.980469 53.902344 C 16.738281 53.660156 16.710938 53.277344 16.921875 53.003906 C 17.765625 51.890625 18.234375 50.476562 18.128906 48.953125 C 17.921875 45.945312 15.464844 43.523438 12.449219 43.367188 C 8.960938 43.183594 6.070312 45.996094 6.117188 49.453125 C 6.160156 52.660156 8.769531 55.304688 11.972656 55.386719 C 13.007812 55.410156 13.984375 55.175781 14.84375 54.738281 C 15.105469 54.605469 15.421875 54.664062 15.628906 54.867188 L 21.546875 60.789062 C 23.199219 62.441406 25.363281 63.265625 27.527344 63.265625 C 29.695312 63.265625 31.863281 62.4375 33.507812 60.789062 C 36.808594 57.492188 36.808594 52.125 33.507812 48.828125 L 10.292969 25.613281 C 6.179688 21.496094 6.179688 14.804688 10.292969 10.6875 C 14.410156 6.574219 21.105469 6.574219 25.21875 10.6875 L 30.144531 15.617188 C 30.308594 15.78125 30.527344 15.859375 30.746094 15.855469 C 30.964844 15.859375 31.179688 15.78125 31.347656 15.617188 L 36.175781 10.789062 C 38.179688 8.785156 40.882812 7.605469 43.714844 7.597656 C 46.542969 7.59375 49.199219 8.691406 51.199219 10.6875 C 53.195312 12.6875 54.292969 15.339844 54.289062 18.167969 C 54.285156 21 53.101562 23.707031 51.101562 25.710938 L 49.539062 27.273438 C 49.410156 27.398438 49.234375 27.472656 49.054688 27.472656 L 44.402344 27.472656 C 44.144531 27.472656 43.90625 27.328125 43.789062 27.097656 L 41.542969 22.601562 C 41.292969 22.097656 40.574219 22.097656 40.320312 22.601562 L 36.460938 30.320312 C 36.207031 30.824219 35.488281 30.824219 35.238281 30.320312 L 33.917969 27.679688 C 33.667969 27.175781 32.949219 27.175781 32.699219 27.679688 L 31.378906 30.320312 C 31.128906 30.820312 30.410156 30.820312 30.160156 30.320312 L 26.296875 22.597656 C 26.046875 22.09375 25.328125 22.09375 25.078125 22.597656 L 22.828125 27.09375 C 22.714844 27.324219 22.476562 27.46875 22.21875 27.46875 L 18.101562 27.46875 C 17.652344 27.46875 17.261719 27.816406 17.246094 28.265625 C 17.234375 28.730469 17.605469 29.109375 18.066406 29.109375 L 23.234375 29.109375 C 23.492188 29.109375 23.726562 28.960938 23.84375 28.730469 L 25.078125 26.261719 C 25.328125 25.757812 26.046875 25.757812 26.296875 26.261719 L 30.160156 33.980469 C 30.410156 34.484375 31.128906 34.484375 31.378906 33.980469 L 32.699219 31.34375 C 32.949219 30.839844 33.667969 30.839844 33.917969 31.34375 L 35.238281 33.984375 C 35.488281 34.488281 36.207031 34.488281 36.460938 33.984375 L 40.320312 26.261719 C 40.570312 25.761719 41.289062 25.757812 41.539062 26.261719 L 42.777344 28.734375 C 42.890625 28.964844 43.128906 29.109375 43.386719 29.109375 L 49.675781 29.109375 C 49.726562 29.109375 49.777344 29.105469 49.824219 29.097656 C 49.828125 29.097656 49.832031 29.09375 49.835938 29.09375 C 49.882812 29.085938 49.929688 29.070312 49.976562 29.054688 C 49.980469 29.050781 49.984375 29.050781 49.988281 29.050781 C 50.03125 29.03125 50.074219 29.007812 50.117188 28.980469 C 50.121094 28.980469 50.125 28.976562 50.128906 28.976562 C 50.171875 28.945312 50.214844 28.910156 50.25 28.875 C 50.253906 28.875 50.253906 28.875 50.253906 28.871094 L 52.238281 26.890625 C 54.582031 24.542969 55.953125 21.367188 55.925781 18.046875 C 55.898438 14.730469 54.554688 11.621094 52.140625 9.320312 Z M 7.753906 49.371094 C 7.753906 46.960938 9.71875 44.996094 12.128906 44.996094 C 14.542969 44.996094 16.503906 46.960938 16.503906 49.371094 C 16.503906 51.785156 14.542969 53.746094 12.128906 53.746094 C 9.71875 53.746094 7.753906 51.785156 7.753906 49.371094 Z M 7.753906 49.371094 " fill-opacity="1" fill-rule="nonzero"/></g><g clip-path="url(#760467e7de)"><path fill="#ffffff" d="M 103.609375 15.660156 C 102.15625 15.660156 100.964844 14.46875 100.964844 13.015625 C 100.964844 11.558594 102.15625 10.367188 103.609375 10.367188 C 105.066406 10.367188 106.257812 11.558594 106.257812 13.015625 C 106.257812 14.46875 105.066406 15.660156 103.609375 15.660156 Z M 103.609375 15.660156 " fill-opacity="1" fill-rule="nonzero"/></g><g clip-path="url(#324e86797d)"><path fill="#008080" d="M 94.667969 7.578125 C 96.796875 8.292969 98.652344 9.449219 100.234375 11.039062 C 101.296875 12.121094 102.160156 13.347656 102.824219 14.710938 C 103.960938 13.691406 105.039062 12.628906 106.195312 11.664062 C 109.488281 8.9375 113.234375 7.539062 117.550781 7.9375 C 121.867188 8.332031 125.613281 10.566406 128.339844 14.105469 C 131.574219 18.328125 132.765625 23.171875 132.3125 28.433594 C 131.914062 33.277344 130.0625 37.613281 127.542969 41.703125 C 121.183594 52.074219 113.574219 58.148438 111.609375 59.53125 C 109.640625 60.910156 107.347656 62.3125 105.722656 63.257812 C 108.1875 62.230469 110.574219 61.039062 112.875 59.679688 C 114.519531 58.695312 116.109375 57.628906 117.644531 56.484375 C 121.316406 53.777344 126.390625 49.839844 130.800781 43.632812 C 133.828125 39.335938 136.078125 34.679688 136.703125 29.417969 C 137.632812 21.507812 135.53125 14.5625 129.570312 9.089844 C 125.539062 5.363281 120.671875 3.734375 115.183594 4.453125 C 113.519531 4.644531 111.929688 5.101562 110.414062 5.816406 C 106.328125 7.746094 103.753906 11.304688 103.054688 12.003906 C 102.152344 11.09375 101.15625 10.304688 100.0625 9.640625 C 98.390625 8.621094 96.59375 7.933594 94.667969 7.578125 Z M 94.667969 7.578125 " fill-opacity="1" fill-rule="nonzero"/></g></svg>